<svg viewBox="0 0 1200 800" xmlns="http://www.w3.org/2000/svg" class="continent-map">
  <!-- Asia Map (focused on wine-producing regions) -->
  
  <!-- Georgia -->
  <path id="Georgia" class="country" d="M520 280 L560 270 L600 280 L620 300 L610 320 L590 340 L560 350 L530 340 L510 320 L500 300 Z"/>
  
  <!-- Armenia -->
  <path id="Armenia" class="country" d="M580 320 L600 310 L620 320 L630 340 L620 360 L600 380 L580 390 L560 380 L550 360 L560 340 Z"/>
  
  <!-- Azerbaijan -->
  <path id="Azerbaijan" class="country" d="M620 300 L660 290 L700 300 L720 320 L710 340 L690 360 L660 370 L630 360 L620 340 L610 320 Z"/>
  
  <!-- Turkey -->
  <path id="Turkey" class="country" d="M400 320 L440 310 L480 320 L520 330 L560 340 L580 360 L570 380 L550 400 L510 410 L470 400 L430 390 L390 380 L370 360 L380 340 Z"/>
  
  <!-- Israel -->
  <path id="Israel" class="country" d="M480 420 L500 410 L520 420 L530 440 L520 460 L500 470 L480 460 L470 440 Z"/>
  
  <!-- Lebanon -->
  <path id="Lebanon" class="country" d="M460 400 L480 390 L500 400 L510 420 L500 440 L480 450 L460 440 L450 420 Z"/>
  
  <!-- Syria -->
  <path id="Syria" class="country" d="M500 380 L540 370 L580 380 L600 400 L590 420 L570 440 L540 450 L510 440 L490 420 L480 400 Z"/>
  
  <!-- Jordan -->
  <path id="Jordan" class="country" d="M520 440 L540 430 L560 440 L570 460 L560 480 L540 490 L520 480 L510 460 Z"/>
  
  <!-- China -->
  <path id="China" class="country" d="M700 200 L800 180 L900 190 L1000 200 L1100 210 L1150 240 L1140 280 L1120 320 L1100 360 L1080 400 L1060 440 L1040 480 L1020 520 L1000 560 L980 600 L960 640 L940 680 L920 720 L900 750 L880 720 L860 680 L840 640 L820 600 L800 560 L780 520 L760 480 L740 440 L720 400 L700 360 L680 320 L660 280 L680 240 Z"/>
  
  <!-- India -->
  <path id="India" class="country" d="M800 400 L840 390 L880 400 L920 410 L960 420 L980 450 L970 480 L950 510 L930 540 L910 570 L890 600 L870 630 L850 660 L830 690 L810 720 L790 750 L770 720 L750 690 L730 660 L710 630 L690 600 L670 570 L650 540 L630 510 L610 480 L590 450 L570 420 L550 390 L530 360 L510 330 L490 300 L470 270 L450 240 L430 210 L410 180 L390 150 L370 120 L350 90 L330 60 L310 30 L290 0 L310 30 L330 60 L350 90 L370 120 L390 150 L410 180 L430 210 L450 240 L470 270 L490 300 L510 330 L530 360 L550 390 L570 420 L590 450 L610 480 L630 510 L650 540 L670 570 L690 600 L710 630 L730 660 L750 690 L770 720 L790 750 L810 720 L830 690 L850 660 L870 630 L890 600 L910 570 L930 540 L950 510 L970 480 L980 450 L960 420 L920 410 L880 400 L840 390 L800 400 Z"/>
  
  <!-- Japan -->
  <path id="Japan" class="country" d="M1000 300 L1020 290 L1040 300 L1060 310 L1080 320 L1100 330 L1120 340 L1130 360 L1120 380 L1100 390 L1080 400 L1060 410 L1040 420 L1020 430 L1000 440 L980 450 L960 460 L940 470 L920 480 L900 490 L880 500 L860 510 L840 520 L820 530 L800 540 L780 550 L760 560 L740 570 L720 580 L700 590 L680 600 L660 610 L640 620 L620 630 L600 640 L580 650 L560 660 L540 670 L520 680 L500 690 L480 700 L460 710 L440 720 L420 730 L400 740 L380 750 L360 760 L340 770 L320 780 L300 790 L280 800 L260 790 L240 780 L220 770 L200 760 L180 750 L160 740 L140 730 L120 720 L100 710 L80 700 L60 690 L40 680 L20 670 L0 660 L20 650 L40 640 L60 630 L80 620 L100 610 L120 600 L140 590 L160 580 L180 570 L200 560 L220 550 L240 540 L260 530 L280 520 L300 510 L320 500 L340 490 L360 480 L380 470 L400 460 L420 450 L440 440 L460 430 L480 420 L500 410 L520 400 L540 390 L560 380 L580 370 L600 360 L620 350 L640 340 L660 330 L680 320 L700 310 L720 300 L740 290 L760 280 L780 270 L800 260 L820 250 L840 240 L860 230 L880 220 L900 210 L920 200 L940 190 L960 180 L980 170 L1000 160 L1020 150 L1040 140 L1060 130 L1080 120 L1100 110 L1120 100 L1140 90 L1160 80 L1180 70 L1200 60 L1180 50 L1160 40 L1140 30 L1120 20 L1100 10 L1080 0 L1060 10 L1040 20 L1020 30 L1000 40 L980 50 L960 60 L940 70 L920 80 L900 90 L880 100 L860 110 L840 120 L820 130 L800 140 L780 150 L760 160 L740 170 L720 180 L700 190 L680 200 L660 210 L640 220 L620 230 L600 240 L580 250 L560 260 L540 270 L520 280 L500 290 L480 300 L460 310 L440 320 L420 330 L400 340 L380 350 L360 360 L340 370 L320 380 L300 390 L280 400 L260 410 L240 420 L220 430 L200 440 L180 450 L160 460 L140 470 L120 480 L100 490 L80 500 L60 510 L40 520 L20 530 L0 540 L20 550 L40 560 L60 570 L80 580 L100 590 L120 600 L140 610 L160 620 L180 630 L200 640 L220 650 L240 660 L260 670 L280 680 L300 690 L320 700 L340 710 L360 720 L380 730 L400 740 L420 750 L440 760 L460 770 L480 780 L500 790 L520 800 L540 790 L560 780 L580 770 L600 760 L620 750 L640 740 L660 730 L680 720 L700 710 L720 700 L740 690 L760 680 L780 670 L800 660 L820 650 L840 640 L860 630 L880 620 L900 610 L920 600 L940 590 L960 580 L980 570 L1000 560 L1020 550 L1040 540 L1060 530 L1080 520 L1100 510 L1120 500 L1140 490 L1160 480 L1180 470 L1200 460 L1180 450 L1160 440 L1140 430 L1120 420 L1100 410 L1080 400 L1060 390 L1040 380 L1020 370 L1000 360 L980 350 L960 340 L940 330 L920 320 L900 310 L880 300 L860 290 L840 280 L820 270 L800 260 L780 250 L760 240 L740 230 L720 220 L700 210 L680 200 L660 190 L640 180 L620 170 L600 160 L580 150 L560 140 L540 130 L520 120 L500 110 L480 100 L460 90 L440 80 L420 70 L400 60 L380 50 L360 40 L340 30 L320 20 L300 10 L280 0 L300 10 L320 20 L340 30 L360 40 L380 50 L400 60 L420 70 L440 80 L460 90 L480 100 L500 110 L520 120 L540 130 L560 140 L580 150 L600 160 L620 170 L640 180 L660 190 L680 200 L700 210 L720 220 L740 230 L760 240 L780 250 L800 260 L820 270 L840 280 L860 290 L880 300 L900 310 L920 320 L940 330 L960 340 L980 350 L1000 360 L1020 370 L1040 380 L1060 390 L1080 400 L1100 410 L1120 420 L1140 430 L1160 440 L1180 450 L1200 460\"/>\n  
  <!-- Country Labels -->
  <text x="560" y="315" text-anchor="middle" font-size="12" font-weight="bold" fill="#333">Georgia</text>
  <text x="600" y="355" text-anchor="middle" font-size="10" font-weight="bold" fill="#333">Armenia</text>
  <text x="665" y="335" text-anchor="middle" font-size="10" font-weight="bold" fill="#333">Azerbaijan</text>
  <text x="475" y="365" text-anchor="middle" font-size="12" font-weight="bold" fill="#333">Turkey</text>
  <text x="500" y="445" text-anchor="middle" font-size="9" font-weight="bold" fill="#333">Israel</text>
  <text x="480" y="425" text-anchor="middle" font-size="8" font-weight="bold" fill="#333">Lebanon</text>
  <text x="540" y="415" text-anchor="middle" font-size="10" font-weight="bold" fill="#333">Syria</text>
  <text x="540" y="465" text-anchor="middle" font-size="9" font-weight="bold" fill="#333">Jordan</text>
  <text x="900" y="400" text-anchor="middle" font-size="18" font-weight="bold" fill="#333">China</text>
  <text x="700" y="550" text-anchor="middle" font-size="16" font-weight="bold" fill="#333">India</text>
  <text x="1050" y="250" text-anchor="middle" font-size="14" font-weight="bold" fill="#333">Japan</text>
</svg>