<svg viewBox="0 0 800 600" xmlns="http://www.w3.org/2000/svg" class="continent-map">
  <!-- Detailed Europe Map with realistic country shapes -->
  
  <!-- France -->
  <path id="France" class="country" d="M180 280 L220 270 L250 250 L280 240 L290 220 L310 210 L330 200 L340 180 L320 160 L300 170 L280 180 L260 190 L240 200 L220 210 L200 220 L180 240 L170 260 L175 280 Z M290 320 L320 310 L340 320 L360 340 L370 360 L360 380 L340 390 L320 400 L300 410 L280 400 L260 390 L250 370 L260 350 L280 340 Z"/>
  
  <!-- Spain -->
  <path id="Spain" class="country" d="M120 340 L180 330 L220 320 L250 330 L280 340 L290 360 L285 380 L270 400 L250 420 L230 430 L200 435 L170 430 L140 420 L120 400 L110 380 L115 360 Z"/>
  
  <!-- Portugal -->
  <path id="Portugal" class="country" d="M80 350 L120 340 L115 360 L110 380 L120 400 L115 420 L100 440 L85 450 L70 440 L60 420 L65 400 L70 380 L75 360 Z"/>
  
  <!-- Italy -->
  <path id="Italy" class="country" d="M380 340 L400 330 L420 340 L430 360 L440 380 L450 400 L460 420 L470 440 L475 460 L470 480 L460 500 L450 520 L440 540 L430 560 L420 580 L410 600 L400 580 L390 560 L385 540 L380 520 L375 500 L370 480 L365 460 L360 440 L365 420 L370 400 L375 380 L380 360 Z M460 320 L480 310 L500 320 L510 340 L500 360 L480 370 L460 360 L450 340 Z"/>
  
  <!-- Germany -->
  <path id="Germany" class="country" d="M350 180 L400 170 L450 180 L480 200 L500 220 L520 240 L530 260 L520 280 L500 300 L480 310 L460 320 L440 310 L420 300 L400 290 L380 280 L360 270 L340 260 L330 240 L335 220 L340 200 Z"/>
  
  <!-- United Kingdom -->
  <path id="United Kingdom" class="country" d="M200 120 L230 110 L260 120 L280 140 L290 160 L280 180 L260 190 L240 185 L220 180 L200 170 L180 160 L170 140 L175 120 Z M240 80 L270 70 L300 80 L320 100 L315 120 L300 140 L280 145 L260 140 L240 135 L220 130 L210 110 L220 90 Z"/>
  
  <!-- Poland -->
  <path id="Poland" class="country" d="M480 160 L520 150 L560 160 L580 180 L590 200 L580 220 L560 240 L540 250 L520 260 L500 250 L480 240 L470 220 L465 200 L470 180 Z"/>
  
  <!-- Netherlands -->
  <path id="Netherlands" class="country" d="M320 200 L340 190 L360 200 L370 220 L360 240 L340 250 L320 240 L310 220 Z"/>
  
  <!-- Belgium -->
  <path id="Belgium" class="country" d="M300 240 L320 230 L340 240 L350 260 L340 280 L320 290 L300 280 L290 260 Z"/>
  
  <!-- Switzerland -->
  <path id="Switzerland" class="country" d="M340 300 L360 290 L380 300 L390 320 L380 340 L360 350 L340 340 L330 320 Z"/>
  
  <!-- Austria -->
  <path id="Austria" class="country" d="M400 280 L440 270 L480 280 L500 300 L490 320 L470 330 L450 325 L430 320 L410 310 L395 295 Z"/>
  
  <!-- Norway -->
  <path id="Norway" class="country" d="M400 40 L430 30 L460 40 L480 60 L490 80 L500 100 L510 120 L500 140 L480 150 L460 145 L440 140 L420 135 L400 130 L380 125 L360 120 L350 100 L355 80 L365 60 L380 50 Z"/>
  
  <!-- Sweden -->
  <path id="Sweden" class="country" d="M460 50 L490 40 L520 50 L540 70 L550 90 L560 110 L570 130 L560 150 L540 160 L520 155 L500 150 L480 145 L465 125 L460 105 L465 85 L470 65 Z"/>
  
  <!-- Finland -->
  <path id="Finland" class="country" d="M520 60 L550 50 L580 60 L600 80 L610 100 L620 120 L610 140 L590 150 L570 145 L550 140 L530 135 L520 115 L525 95 L530 75 Z"/>
  
  <!-- Denmark -->
  <path id="Denmark" class="country" d="M420 180 L440 170 L460 180 L470 200 L460 220 L440 230 L420 220 L410 200 Z M380 160 L400 150 L420 160 L430 180 L420 200 L400 210 L380 200 L370 180 Z"/>
  
  <!-- Greece -->
  <path id="Greece" class="country" d="M480 420 L510 410 L540 420 L560 440 L570 460 L560 480 L540 500 L520 510 L500 505 L480 500 L460 490 L450 470 L460 450 L470 430 Z"/>
  
  <!-- Hungary -->
  <path id="Hungary" class="country" d="M460 300 L490 290 L520 300 L540 320 L530 340 L510 350 L490 345 L470 340 L450 330 L445 315 Z"/>
  
  <!-- Czech Republic -->
  <path id="Czech Republic" class="country" d="M420 260 L450 250 L480 260 L490 280 L480 300 L450 310 L420 300 L410 280 Z"/>
  
  <!-- Romania -->
  <path id="Romania" class="country" d="M520 320 L560 310 L590 320 L610 340 L620 360 L610 380 L590 390 L570 385 L550 380 L530 375 L510 370 L500 350 L505 335 Z"/>
  
  <!-- Bulgaria -->
  <path id="Bulgaria" class="country" d="M520 380 L550 370 L580 380 L600 400 L590 420 L570 430 L550 425 L530 420 L510 415 L500 395 Z"/>
  
  <!-- Croatia -->
  <path id="Croatia" class="country" d="M420 340 L450 330 L480 340 L500 360 L490 380 L470 390 L450 385 L430 380 L410 370 L400 350 Z"/>
  
  <!-- Serbia -->
  <path id="Serbia" class="country" d="M480 380 L510 370 L530 380 L540 400 L530 420 L510 430 L490 425 L470 420 L460 400 L465 385 Z"/>
  
  <!-- Ireland -->
  <path id="Ireland" class="country" d="M120 140 L150 130 L180 140 L190 160 L185 180 L170 200 L150 210 L130 205 L110 200 L100 180 L105 160 L110 140 Z"/>
  
  <!-- Country Labels (smaller font sizes) -->
  <text x="250" y="350" text-anchor="middle" font-size="12" font-weight="bold" fill="#333">France</text>
  <text x="180" y="380" text-anchor="middle" font-size="11" font-weight="bold" fill="#333">Spain</text>
  <text x="90" y="400" text-anchor="middle" font-size="9" font-weight="bold" fill="#333">Portugal</text>
  <text x="420" y="450" text-anchor="middle" font-size="11" font-weight="bold" fill="#333">Italy</text>
  <text x="430" y="250" text-anchor="middle" font-size="11" font-weight="bold" fill="#333">Germany</text>
  <text x="240" y="150" text-anchor="middle" font-size="10" font-weight="bold" fill="#333">UK</text>
  <text x="530" y="210" text-anchor="middle" font-size="10" font-weight="bold" fill="#333">Poland</text>
  <text x="340" y="220" text-anchor="middle" font-size="8" font-weight="bold" fill="#333">NL</text>
  <text x="320" y="265" text-anchor="middle" font-size="8" font-weight="bold" fill="#333">BE</text>
  <text x="360" y="325" text-anchor="middle" font-size="8" font-weight="bold" fill="#333">CH</text>
  <text x="450" y="300" text-anchor="middle" font-size="9" font-weight="bold" fill="#333">Austria</text>
  <text x="440" y="90" text-anchor="middle" font-size="10" font-weight="bold" fill="#333">Norway</text>
  <text x="510" y="110" text-anchor="middle" font-size="10" font-weight="bold" fill="#333">Sweden</text>
  <text x="570" y="110" text-anchor="middle" font-size="9" font-weight="bold" fill="#333">Finland</text>
  <text x="440" y="200" text-anchor="middle" font-size="9" font-weight="bold" fill="#333">Denmark</text>
  <text x="520" y="460" text-anchor="middle" font-size="9" font-weight="bold" fill="#333">Greece</text>
  <text x="490" y="325" text-anchor="middle" font-size="9" font-weight="bold" fill="#333">Hungary</text>
  <text x="450" y="280" text-anchor="middle" font-size="8" font-weight="bold" fill="#333">Czech</text>
  <text x="570" y="350" text-anchor="middle" font-size="9" font-weight="bold" fill="#333">Romania</text>
  <text x="560" y="400" text-anchor="middle" font-size="9" font-weight="bold" fill="#333">Bulgaria</text>
  <text x="450" y="365" text-anchor="middle" font-size="8" font-weight="bold" fill="#333">Croatia</text>
  <text x="500" y="405" text-anchor="middle" font-size="8" font-weight="bold" fill="#333">Serbia</text>
  <text x="150" y="170" text-anchor="middle" font-size="9" font-weight="bold" fill="#333">Ireland</text>
</svg>