<svg viewBox="0 0 1000 700" xmlns="http://www.w3.org/2000/svg" class="continent-map">
  <!-- North America Map -->
  
  <!-- United States -->
  <path id="United States" class="country" d="M150 250 L200 240 L250 230 L300 220 L350 210 L400 200 L450 190 L500 180 L550 170 L600 160 L650 150 L700 140 L750 130 L800 120 L850 110 L900 100 L950 90 L980 100 L970 120 L960 140 L950 160 L940 180 L930 200 L920 220 L910 240 L900 260 L890 280 L880 300 L870 320 L860 340 L850 360 L840 380 L830 400 L820 420 L810 440 L800 460 L790 480 L780 500 L770 520 L760 540 L750 560 L740 580 L730 600 L720 620 L710 640 L700 660 L690 680 L680 700 L670 680 L660 660 L650 640 L640 620 L630 600 L620 580 L610 560 L600 540 L590 520 L580 500 L570 480 L560 460 L550 440 L540 420 L530 400 L520 380 L510 360 L500 340 L490 320 L480 300 L470 280 L460 260 L450 240 L440 220 L430 200 L420 180 L410 160 L400 140 L390 120 L380 100 L370 80 L360 60 L350 40 L340 20 L330 0 L320 20 L310 40 L300 60 L290 80 L280 100 L270 120 L260 140 L250 160 L240 180 L230 200 L220 220 L210 240 L200 260 L190 280 L180 300 L170 320 L160 340 L150 360 L140 380 L130 400 L120 420 L110 440 L100 460 L90 480 L80 500 L70 520 L60 540 L50 560 L40 580 L30 600 L20 620 L10 640 L0 660 L10 680 L20 700 L30 680 L40 660 L50 640 L60 620 L70 600 L80 580 L90 560 L100 540 L110 520 L120 500 L130 480 L140 460 L150 440 L160 420 L170 400 L180 380 L190 360 L200 340 L210 320 L220 300 L230 280 L240 260 L250 240 L260 220 L270 200 L280 180 L290 160 L300 140 L310 120 L320 100 L330 80 L340 60 L350 40 L360 20 L370 0 L380 20 L390 40 L400 60 L410 80 L420 100 L430 120 L440 140 L450 160 L460 180 L470 200 L480 220 L490 240 L500 260 L510 280 L520 300 L530 320 L540 340 L550 360 L560 380 L570 400 L580 420 L590 440 L600 460 L610 480 L620 500 L630 520 L640 540 L650 560 L660 580 L670 600 L680 620 L690 640 L700 660 L710 680 L720 700 L730 680 L740 660 L750 640 L760 620 L770 600 L780 580 L790 560 L800 540 L810 520 L820 500 L830 480 L840 460 L850 440 L860 420 L870 400 L880 380 L890 360 L900 340 L910 320 L920 300 L930 280 L940 260 L950 240 L960 220 L970 200 L980 180 L990 160 L1000 140 L990 120 L980 100 L970 80 L960 60 L950 40 L940 20 L930 0 L920 20 L910 40 L900 60 L890 80 L880 100 L870 120 L860 140 L850 160 L840 180 L830 200 L820 220 L810 240 L800 260 L790 280 L780 300 L770 320 L760 340 L750 360 L740 380 L730 400 L720 420 L710 440 L700 460 L690 480 L680 500 L670 520 L660 540 L650 560 L640 580 L630 600 L620 620 L610 640 L600 660 L590 680 L580 700 L570 680 L560 660 L550 640 L540 620 L530 600 L520 580 L510 560 L500 540 L490 520 L480 500 L470 480 L460 460 L450 440 L440 420 L430 400 L420 380 L410 360 L400 340 L390 320 L380 300 L370 280 L360 260 L350 240 L340 220 L330 200 L320 180 L310 160 L300 140 L290 120 L280 100 L270 80 L260 60 L250 40 L240 20 L230 0 L220 20 L210 40 L200 60 L190 80 L180 100 L170 120 L160 140 L150 160 L140 180 L130 200 L120 220 L110 240 L100 260 L90 280 L80 300 L70 320 L60 340 L50 360 L40 380 L30 400 L20 420 L10 440 L0 460 L10 480 L20 500 L30 520 L40 540 L50 560 L60 580 L70 600 L80 620 L90 640 L100 660 L110 680 L120 700 L130 680 L140 660 L150 640 L160 620 L170 600 L180 580 L190 560 L200 540 L210 520 L220 500 L230 480 L240 460 L250 440 L260 420 L270 400 L280 380 L290 360 L300 340 L310 320 L320 300 L330 280 L340 260 L350 240 L360 220 L370 200 L380 180 L390 160 L400 140 L410 120 L420 100 L430 80 L440 60 L450 40 L460 20 L470 0 L480 20 L490 40 L500 60 L510 80 L520 100 L530 120 L540 140 L550 160 L560 180 L570 200 L580 220 L590 240 L600 260 L610 280 L620 300 L630 320 L640 340 L650 360 L660 380 L670 400 L680 420 L690 440 L700 460 L710 480 L720 500 L730 520 L740 540 L750 560 L760 580 L770 600 L780 620 L790 640 L800 660 L810 680 L820 700 L830 680 L840 660 L850 640 L860 620 L870 600 L880 580 L890 560 L900 540 L910 520 L920 500 L930 480 L940 460 L950 440 L960 420 L970 400 L980 380 L990 360 L1000 340 L990 320 L980 300 L970 280 L960 260 L950 240 L940 220 L930 200 L920 180 L910 160 L900 140 L890 120 L880 100 L870 80 L860 60 L850 40 L840 20 L830 0 L820 20 L810 40 L800 60 L790 80 L780 100 L770 120 L760 140 L750 160 L740 180 L730 200 L720 220 L710 240 L700 260 L690 280 L680 300 L670 320 L660 340 L650 360 L640 380 L630 400 L620 420 L610 440 L600 460 L590 480 L580 500 L570 520 L560 540 L550 560 L540 580 L530 600 L520 620 L510 640 L500 660 L490 680 L480 700 L470 680 L460 660 L450 640 L440 620 L430 600 L420 580 L410 560 L400 540 L390 520 L380 500 L370 480 L360 460 L350 440 L340 420 L330 400 L320 380 L310 360 L300 340 L290 320 L280 300 L270 280 L260 260 L250 240 L240 220 L230 200 L220 180 L210 160 L200 140 L190 120 L180 100 L170 80 L160 60 L150 40 L140 20 L130 0 L140 20 L150 40 L160 60 L170 80 L180 100 L190 120 L200 140 L210 160 L220 180 L230 200 L240 220 L250 240"/>
  
  <!-- Canada -->
  <path id="Canada" class="country" d="M150 50 L200 40 L250 30 L300 20 L350 10 L400 0 L450 10 L500 20 L550 30 L600 40 L650 50 L700 60 L750 70 L800 80 L850 90 L900 100 L950 110 L980 120 L970 140 L960 160 L950 180 L940 200 L930 220 L920 240 L910 260 L900 280 L890 300 L880 320 L870 340 L860 360 L850 380 L840 400 L830 420 L820 440 L810 460 L800 480 L790 500 L780 520 L770 540 L760 560 L750 580 L740 600 L730 620 L720 640 L710 660 L700 680 L690 700 L680 680 L670 660 L660 640 L650 620 L640 600 L630 580 L620 560 L610 540 L600 520 L590 500 L580 480 L570 460 L560 440 L550 420 L540 400 L530 380 L520 360 L510 340 L500 320 L490 300 L480 280 L470 260 L460 240 L450 220 L440 200 L430 180 L420 160 L410 140 L400 120 L390 100 L380 80 L370 60 L360 40 L350 20 L340 0 L330 20 L320 40 L310 60 L300 80 L290 100 L280 120 L270 140 L260 160 L250 180 L240 200 L230 220 L220 240 L210 260 L200 280 L190 300 L180 320 L170 340 L160 360 L150 380 L140 400 L130 420 L120 440 L110 460 L100 480 L90 500 L80 520 L70 540 L60 560 L50 580 L40 600 L30 620 L20 640 L10 660 L0 680 L10 700 L20 680 L30 660 L40 640 L50 620 L60 600 L70 580 L80 560 L90 540 L100 520 L110 500 L120 480 L130 460 L140 440 L150 420 L160 400 L170 380 L180 360 L190 340 L200 320 L210 300 L220 280 L230 260 L240 240 L250 220 L260 200 L270 180 L280 160 L290 140 L300 120 L310 100 L320 80 L330 60 L340 40 L350 20 L360 0 L370 20 L380 40 L390 60 L400 80 L410 100 L420 120 L430 140 L440 160 L450 180 L460 200 L470 220 L480 240 L490 260 L500 280 L510 300 L520 320 L530 340 L540 360 L550 380 L560 400 L570 420 L580 440 L590 460 L600 480 L610 500 L620 520 L630 540 L640 560 L650 580 L660 600 L670 620 L680 640 L690 660 L700 680 L710 700 L720 680 L730 660 L740 640 L750 620 L760 600 L770 580 L780 560 L790 540 L800 520 L810 500 L820 480 L830 460 L840 440 L850 420 L860 400 L870 380 L880 360 L890 340 L900 320 L910 300 L920 280 L930 260 L940 240 L950 220 L960 200 L970 180 L980 160 L990 140 L1000 120 L990 100 L980 80 L970 60 L960 40 L950 20 L940 0 L930 20 L920 40 L910 60 L900 80 L890 100 L880 120 L870 140 L860 160 L850 180 L840 200 L830 220 L820 240 L810 260 L800 280 L790 300 L780 320 L770 340 L760 360 L750 380 L740 400 L730 420 L720 440 L710 460 L700 480 L690 500 L680 520 L670 540 L660 560 L650 580 L640 600 L630 620 L620 640 L610 660 L600 680 L590 700 L580 680 L570 660 L560 640 L550 620 L540 600 L530 580 L520 560 L510 540 L500 520 L490 500 L480 480 L470 460 L460 440 L450 420 L440 400 L430 380 L420 360 L410 340 L400 320 L390 300 L380 280 L370 260 L360 240 L350 220 L340 200 L330 180 L320 160 L310 140 L300 120 L290 100 L280 80 L270 60 L260 40 L250 20 L240 0 L230 20 L220 40 L210 60 L200 80 L190 100 L180 120 L170 140 L160 160 L150 180 L140 200 L130 220 L120 240 L110 260 L100 280 L90 300 L80 320 L70 340 L60 360 L50 380 L40 400 L30 420 L20 440 L10 460 L0 480 L10 500 L20 520 L30 540 L40 560 L50 580 L60 600 L70 620 L80 640 L90 660 L100 680 L110 700 L120 680 L130 660 L140 640 L150 620 L160 600 L170 580 L180 560 L190 540 L200 520 L210 500 L220 480 L230 460 L240 440 L250 420 L260 400 L270 380 L280 360 L290 340 L300 320 L310 300 L320 280 L330 260 L340 240 L350 220 L360 200 L370 180 L380 160 L390 140 L400 120 L410 100 L420 80 L430 60 L440 40 L450 20 L460 0 L470 20 L480 40 L490 60 L500 80 L510 100 L520 120 L530 140 L540 160 L550 180 L560 200 L570 220 L580 240 L590 260 L600 280 L610 300 L620 320 L630 340 L640 360 L650 380 L660 400 L670 420 L680 440 L690 460 L700 480 L710 500 L720 520 L730 540 L740 560 L750 580 L760 600 L770 620 L780 640 L790 660 L800 680 L810 700 L820 680 L830 660 L840 640 L850 620 L860 600 L870 580 L880 560 L890 540 L900 520 L910 500 L920 480 L930 460 L940 440 L950 420 L960 400 L970 380 L980 360 L990 340 L1000 320 L990 300 L980 280 L970 260 L960 240 L950 220 L940 200 L930 180 L920 160 L910 140 L900 120 L890 100 L880 80 L870 60 L860 40 L850 20 L840 0 L830 20 L820 40 L810 60 L800 80 L790 100 L780 120 L770 140 L760 160 L750 180 L740 200 L730 220 L720 240 L710 260 L700 280 L690 300 L680 320 L670 340 L660 360 L650 380 L640 400 L630 420 L620 440 L610 460 L600 480 L590 500 L580 520 L570 540 L560 560 L550 580 L540 600 L530 620 L520 640 L510 660 L500 680 L490 700 L480 680 L470 660 L460 640 L450 620 L440 600 L430 580 L420 560 L410 540 L400 520 L390 500 L380 480 L370 460 L360 440 L350 420 L340 400 L330 380 L320 360 L310 340 L300 320 L290 300 L280 280 L270 260 L260 240 L250 220 L240 200 L230 180 L220 160 L210 140 L200 120 L190 100 L180 80 L170 60 L160 40 L150 20 L140 0 L150 20 L160 40 L170 60 L180 80 L190 100 L200 120 L210 140 L220 160 L230 180 L240 200 L250 220"/>
  
  <!-- Mexico -->
  <path id="Mexico" class="country" d="M200 400 L250 390 L300 380 L350 370 L400 360 L450 350 L500 340 L550 330 L600 320 L650 310 L700 300 L750 290 L800 280 L850 270 L900 260 L950 250 L980 260 L970 280 L960 300 L950 320 L940 340 L930 360 L920 380 L910 400 L900 420 L890 440 L880 460 L870 480 L860 500 L850 520 L840 540 L830 560 L820 580 L810 600 L800 620 L790 640 L780 660 L770 680 L760 700 L750 680 L740 660 L730 640 L720 620 L710 600 L700 580 L690 560 L680 540 L670 520 L660 500 L650 480 L640 460 L630 440 L620 420 L610 400 L600 380 L590 360 L580 340 L570 320 L560 300 L550 280 L540 260 L530 240 L520 220 L510 200 L500 180 L490 160 L480 140 L470 120 L460 100 L450 80 L440 60 L430 40 L420 20 L410 0 L400 20 L390 40 L380 60 L370 80 L360 100 L350 120 L340 140 L330 160 L320 180 L310 200 L300 220 L290 240 L280 260 L270 280 L260 300 L250 320 L240 340 L230 360 L220 380 L210 400 L200 420 Z"/>
  
  <!-- Country Labels -->
  <text x="500" y="350" text-anchor="middle" font-size="20" font-weight="bold" fill="#333">United States</text>
  <text x="500" y="150" text-anchor="middle" font-size="18" font-weight="bold" fill="#333">Canada</text>
  <text x="600" y="500" text-anchor="middle" font-size="16" font-weight="bold" fill="#333">Mexico</text>
</svg>