<svg viewBox="0 0 1000 600" xmlns="http://www.w3.org/2000/svg" class="continent-map">
  <!-- Oceania Map (Australia and New Zealand) -->
  
  <!-- Australia -->
  <path id="Australia" class="country" d="M200 200 L250 190 L300 180 L350 170 L400 160 L450 150 L500 140 L550 130 L600 120 L650 110 L700 100 L750 90 L800 80 L850 70 L900 60 L950 50 L980 60 L970 80 L960 100 L950 120 L940 140 L930 160 L920 180 L910 200 L900 220 L890 240 L880 260 L870 280 L860 300 L850 320 L840 340 L830 360 L820 380 L810 400 L800 420 L790 440 L780 460 L770 480 L760 500 L750 520 L740 540 L730 560 L720 580 L710 600 L700 580 L690 560 L680 540 L670 520 L660 500 L650 480 L640 460 L630 440 L620 420 L610 400 L600 380 L590 360 L580 340 L570 320 L560 300 L550 280 L540 260 L530 240 L520 220 L510 200 L500 180 L490 160 L480 140 L470 120 L460 100 L450 80 L440 60 L430 40 L420 20 L410 0 L400 20 L390 40 L380 60 L370 80 L360 100 L350 120 L340 140 L330 160 L320 180 L310 200 L300 220 L290 240 L280 260 L270 280 L260 300 L250 320 L240 340 L230 360 L220 380 L210 400 L200 420 L190 440 L180 460 L170 480 L160 500 L150 520 L140 540 L130 560 L120 580 L110 600 L100 580 L90 560 L80 540 L70 520 L60 500 L50 480 L40 460 L30 440 L20 420 L10 400 L0 380 L10 360 L20 340 L30 320 L40 300 L50 280 L60 260 L70 240 L80 220 L90 200 L100 180 L110 160 L120 140 L130 120 L140 100 L150 80 L160 60 L170 40 L180 20 L190 0 L200 20 L210 40 L220 60 L230 80 L240 100 L250 120 L260 140 L270 160 L280 180 L290 200 L300 220 L310 240 L320 260 L330 280 L340 300 L350 320 L360 340 L370 360 L380 380 L390 400 L400 420 L410 440 L420 460 L430 480 L440 500 L450 520 L460 540 L470 560 L480 580 L490 600 L500 580 L510 560 L520 540 L530 520 L540 500 L550 480 L560 460 L570 440 L580 420 L590 400 L600 380 L610 360 L620 340 L630 320 L640 300 L650 280 L660 260 L670 240 L680 220 L690 200 L700 180 L710 160 L720 140 L730 120 L740 100 L750 80 L760 60 L770 40 L780 20 L790 0 L800 20 L810 40 L820 60 L830 80 L840 100 L850 120 L860 140 L870 160 L880 180 L890 200 L900 220 L910 240 L920 260 L930 280 L940 300 L950 320 L960 340 L970 360 L980 380 L990 400 L1000 420 L990 440 L980 460 L970 480 L960 500 L950 520 L940 540 L930 560 L920 580 L910 600 L900 580 L890 560 L880 540 L870 520 L860 500 L850 480 L840 460 L830 440 L820 420 L810 400 L800 380 L790 360 L780 340 L770 320 L760 300 L750 280 L740 260 L730 240 L720 220 L710 200 L700 180 L690 160 L680 140 L670 120 L660 100 L650 80 L640 60 L630 40 L620 20 L610 0 L620 20 L630 40 L640 60 L650 80 L660 100 L670 120 L680 140 L690 160 L700 180 L710 200 L720 220 L730 240 L740 260 L750 280 L760 300 L770 320 L780 340 L790 360 L800 380 L810 400 L820 420 L830 440 L840 460 L850 480 L860 500 L870 520 L880 540 L890 560 L900 580 L910 600"/>
  
  <!-- New Zealand North Island -->
  <path id="New Zealand" class="country" d="M850 450 L870 440 L890 450 L900 470 L890 490 L870 500 L850 490 L840 470 Z M850 520 L870 510 L890 520 L900 540 L890 560 L870 570 L850 560 L840 540 Z"/>
  
  <!-- Country Labels -->
  <text x="500" y="320" text-anchor="middle" font-size="24" font-weight="bold" fill="#333">Australia</text>
  <text x="870" y="485" text-anchor="middle" font-size="12" font-weight="bold" fill="#333">New Zealand</text>
</svg>