<?xml version="1.0" standalone="no"?>
<svg id="wrapper" viewBox="0 0 1000 931.4" preserveAspectRatio="xMinYMin" height="931.4" width="1000" style="background-color: rgb(255, 255, 255);" class="continent-map"><metadata>
    <rdf:rdf xmlns:rdf="http://www.w3.org/1999/02/22-rdf-syntax-ns#" xmlns:cc="http://creativecommons.org/ns#" xmlns:dc="http://purl.org/dc/elements/1.1/">
      <cc:work rdf:about="">
        <dc:format>image/svg+xml</dc:format>
        <dc:type rdf:resource="http://purl.org/dc/dcmitype/StillImage"></dc:type>
        <dc:title>MapChart Map</dc:title>
        <dc:creator>
          <cc:agent>
            <dc:title>MapChart.net</dc:title>
          </cc:agent>
        </dc:creator>
        <cc:license rdf:resource="http://creativecommons.org/licenses/by-sa/4.0/"></cc:license>
        <dc:description>This map was created with MapChart.net, a website for creating custom maps.</dc:description>
      </cc:work>
      <cc:license rdf:about="http://creativecommons.org/licenses/by-sa/4.0/">
        <cc:permits rdf:resource="http://creativecommons.org/ns#Reproduction"></cc:permits>
        <cc:permits rdf:resource="http://creativecommons.org/ns#Distribution"></cc:permits>
        <cc:requires rdf:resource="http://creativecommons.org/ns#Notice"></cc:requires>
        <cc:requires rdf:resource="http://creativecommons.org/ns#Attribution"></cc:requires>
        <cc:requires rdf:resource="http://creativecommons.org/ns#ShareAlike"></cc:requires>
      </cc:license>
    </rdf:rdf>
  </metadata><g id="map-group"><svg xmlns="http://www.w3.org/2000/svg" xml:space="preserve" id="map" width="1000" height="931.4" version="1.0" viewBox="0 0 1000 931.4" preserveAspectRatio="xMinYMin"><defs><pattern id="circles3" width="10" height="10" patternUnits="userSpaceOnUse">    <rect width="10" height="10" fill="#fff"></rect>    <circle cx="4" cy="4" r="2" fill="#000"></circle>    </pattern><pattern id="diagonal1" width="10" height="10" patternUnits="userSpaceOnUse">    <rect width="10" height="10" fill="#fff"></rect>    <path id="pattern0" d="M-1,1 l2,-2 M0,10 l10,-10 M9,11 l2,-2" stroke="#000" stroke-width="1"></path>    </pattern><pattern id="diagonal3" width="10" height="10" patternUnits="userSpaceOnUse">    <rect width="10" height="10" fill="#fff"></rect>    <path id="pattern1" d="M-1,1 l2,-2 M0,10 l10,-10 M9,11 l2,-2" stroke="#000" stroke-width="3"></path>    </pattern><pattern id="vertical1" width="10" height="10" patternUnits="userSpaceOnUse">    <rect width="10" height="10" fill="#fff"></rect>    <rect x="2" y="0" width="1" height="10" fill="#000"></rect>    </pattern><pattern id="vertical3" width="10" height="10" patternUnits="userSpaceOnUse">    <rect width="10" height="10" fill="#fff"></rect>    <rect x="2" y="0" width="3" height="10" fill="#000"></rect>    </pattern><pattern id="horizontal1" width="10" height="10" patternUnits="userSpaceOnUse">    <rect width="10" height="10" fill="#fff"></rect>    <rect x="0" y="2" width="10" height="1" fill="#000"></rect>    </pattern><pattern id="horizontal3" width="10" height="10" patternUnits="userSpaceOnUse">    <rect width="10" height="10" fill="#fff"></rect>    <rect x="0" y="2" width="10" height="3" fill="#000"></rect>    </pattern><pattern id="crosshatch" width="8" height="8" patternUnits="userSpaceOnUse">    <rect width="8" height="8" fill="#fff"></rect>    <path id="pattern2" d="M0 0L8 8ZM8 0L0 8Z" stroke-width="0.5" stroke="#aaa"></path>    </pattern><pattern id="subtlepatch" width="5" height="5" patternUnits="userSpaceOnUse">    <rect width="5" height="5" fill="#fff"></rect>    <rect x="2" y="2" width="1" height="1" fill="#000"></rect>    </pattern><pattern id="checkers" width="8" height="8" patternUnits="userSpaceOnUse">    <rect width="8" height="8" fill="#fff"></rect>    <path id="pattern3" fill="#000" fill-rule="evenodd" d="M0 0h4v4H0V0zm4 4h4v4H4V4z"></path>    </pattern><pattern id="raindrops" width="10" height="10" patternUnits="userSpaceOnUse">    <rect width="10" height="10" fill="#fff"></rect>    <path id="pattern4" fill="#000" d="M0 38.59l2.83-2.83 1.41 1.41L1.41 40H0v-1.41zM0 1.4l2.83 2.83 1.41-1.41L1.41 0H0v1.41zM38.59 40l-2.83-2.83 1.41-1.41L40 38.59V40h-1.41zM40 1.41l-2.83 2.83-1.41-1.41L38.59 0H40v1.41zM20 18.6l2.83-2.83 1.41 1.41L21.41 20l2.83 2.83-1.41 1.41L20 21.41l-2.83 2.83-1.41-1.41L18.59 20l-2.83-2.83 1.41-1.41L20 18.59z"></path>    </pattern><pattern id="texture" width="4" height="4" patternUnits="userSpaceOnUse">    <rect width="4" height="4" fill="#fff"></rect>    <path id="pattern5" fill="#000" d="M1 3h1v1H1V3zm2-2h1v1H3V1z"></path>    </pattern><pattern id="circles3_a03500_000000" width="10" height="10" patternUnits="userSpaceOnUse">    <rect width="10" height="10" fill="#a03500"></rect>    <circle cx="4" cy="4" r="2" fill="#000000"></circle>    </pattern><pattern id="diagonal1_d9b400_535353" width="10" height="10" patternUnits="userSpaceOnUse">    <rect width="10" height="10" fill="#d9b400"></rect>    <path id="pattern0" d="M-1,1 l2,-2 M0,10 l10,-10 M9,11 l2,-2" stroke="#535353" stroke-width="1"></path>    </pattern><pattern id="diagonal3_3264c8_ffffff" width="10" height="10" patternUnits="userSpaceOnUse">    <rect width="10" height="10" fill="#3264c8"></rect>    <path id="pattern1" d="M-1,1 l2,-2 M0,10 l10,-10 M9,11 l2,-2" stroke="#ffffff" stroke-width="3"></path>    </pattern><pattern id="horizontal1_72b38e_000000" width="10" height="10" patternUnits="userSpaceOnUse">    <rect width="10" height="10" fill="#72b38e"></rect>    <rect x="0" y="2" width="10" height="1" fill="#000000"></rect>    </pattern><pattern id="horizontal3_986ba1_ffffff" width="10" height="10" patternUnits="userSpaceOnUse">    <rect width="10" height="10" fill="#986ba1"></rect>    <rect x="0" y="2" width="10" height="3" fill="#ffffff"></rect>    </pattern><pattern id="vertical1_b9a087_ffffff" width="10" height="10" patternUnits="userSpaceOnUse">    <rect width="10" height="10" fill="#b9a087"></rect>    <rect x="2" y="0" width="1" height="10" fill="#ffffff"></rect>    </pattern><pattern id="vertical3_4c91bf_ffff33" width="10" height="10" patternUnits="userSpaceOnUse">    <rect width="10" height="10" fill="#4c91bf"></rect>    <rect x="2" y="0" width="3" height="10" fill="#ffff33"></rect>    </pattern><pattern id="checkers_cc3333_f7f7f7" width="8" height="8" patternUnits="userSpaceOnUse">    <rect width="8" height="8" fill="#cc3333"></rect>    <path id="pattern3" fill="#f7f7f7" fill-rule="evenodd" d="M0 0h4v4H0V0zm4 4h4v4H4V4z"></path>    </pattern><pattern id="texture_d1dbdd_525252" width="4" height="4" patternUnits="userSpaceOnUse">    <rect width="4" height="4" fill="#d1dbdd"></rect>    <path id="pattern5" fill="#525252" d="M1 3h1v1H1V3zm2-2h1v1H3V1z"></path>    </pattern><style id="map-style">svg { background-color: #ffffff; }</style></defs><path id="New_South_Wales" class="country" fill="#d1dbdd" stroke="#000" d="m929.42 449.6-2.72 1.95-2.03 1.94-3.4.28-2.8.3-.29 2.31.86 3.31 2.24-.21-2.02 2.42-.4 1.75-3.19 1.46-2.42-.87-1.27-2.12-2.04 2.4-2.03 2.53-.97 1.75-2.12 1.35-1.46-3.3-.21-2.23-1.33-2.13-1.26-1.56-2.05-2.6-3.48-.77-5.05-.1-1.82-.97-2.32-.87-2.23.2-.67-1.65-2.83.3-4.45 1.53-3.96-.67-4.07-1.27-1.75.1-2.42 3.68-3.38-.28-.29 3.48-2.23.21.19 1.62-2.72 1.48-164.64-.21V603.9l.2.67 3.47-.59 5.74 2.72 3.18-2.24 5.42.89 6.6.76 5.33 4.47 1.54 6.28 3.37 3.01.1-3.01 3.31-1.64 3 .67 5.33.4 3.1 1.27 1.94 8.51 4.45 6.39 3.47.1 5.06 2.11 6.1 5.55 1.15 3.96 3.97 2.9 5.06 2.12 4.04-.57-.78-4.56 1.56-2.02 2.24-.3 2.61 1.37 5.7-.88 4.46 2.23 2.8-.4 3.8 1.75 3.67.68 2.04-2.11 2.7-1 3.29 1.86 6 1.46 4.56-1.27 3.29-1.05 2.32-.42 2.23-.85 2.83-1.07 4.34 2.32-.57 3.58 1.75 3.8 2.21 3.18 1.06 3.37-.47 4.18 25.38 12.6 5.31.38 2.24 2.05h2.02l-.48 1.34.4.3 3.37-1.67-.67-5.3 1.37-.68h1.35l-1.35-3.31-2.62-.68 1.27-2.61-1.27-3.29 1.27.68 1.35-4.64 2.61-10.56-.67-6.6 1.35-3.96h-1.35l3.28-2.62-1.93-2.61 2.6.57 5.34-12.48 4.56-1.37-1.94-3.96 1.94-.57v2.61l1.34-.7-1.34-3.96-1.27.68.68-1.35-2.72-.6 4.63-2.02 1.37-4.63-1.35-1.96 2.03-.68v-4.64l5.23-5.22-1.92-.7 3.29-.67-3.99-1.27 4.56-.67.67-3.3-1.92 1.27-1.37-1.26 2.05.67-.68-2.02 1.94 1.35.68-5.33v-.68l-1.37 1.37v-1.94l-.57.57-.68-1.94 1.94 1.37.68-3.29v2.62l2.6-1.37.68-3.3-1.26-1.26h2.61l1.94-5.3-1.94 2.6-.67-2.6h1.94v-2.62l.67 2.61 2.72-4.64-.67-1.26h1.26v1.92l7.93-4.64-2.62-.59-2.61 1.94-.67-.68 1.26-1.26-.59-1.35 2.61 1.35 1.94-1.35.68 1.35 2.61-3.96 4.64-2.72.7-5.23-2.05-.67v1.34l-2.61-1.34h3.28l.7-4.64 4.64-3.88 5.9-19.18-.67-13.18 4.63-11.9.7-2.05 1.94-11.13-1.94-1.35 1.94.67-.6-2.61 5.24-9.97h-1.35l1.35-.6.7-5.32-2.05-2.62.59-5.9-3.02.1-2.8-.29-1.65 1.26-1.56.68-1.72.19-2.91-.87-3.2 1.46-2.54-2.53-2.88-.87Zm-78.55 174.32a10 10 0 0 1 4.26.8c1.14.53 1.52 1.29 1.46 2.11-.07.84-.7 1.73-1.35 2.74-1.33 2-3.12 4.22-3.02 6.18-.23 1.07-1.35 3.4-2.9 3.69-.77.14-1.7-.21-2.62-1.48a21 21 0 0 1-2.8-6.75c-.57-2.1.1-3.87 1.45-5.14a8.7 8.7 0 0 1 5.52-2.13Z" style="fill: rgb(209, 219, 221); fill-opacity: 1; stroke: rgb(0, 0, 0); stroke-width: 1.73674; stroke-miterlimit: 4; stroke-dasharray: none; filter: none;" data-originalStrokeWidth="1.73674"></path><path id="Northern_Territory" class="country" fill="#d1dbdd" stroke="#000" d="M504.26 73.54v2.71l-3.33-.67.72 1.24-1.29 1.37 3.3-.65.62 1.33-.63.65 2.62.72.71 1.9 2.57-1.31 5.9-.6v1.27h1.4l-1.4.64 2.05.73h-1.33l1.33.66-1.33.59h3.94l-3.26 3.29 2.61 2.02-1.26.67-.7 4 3.29 1.25-4.53-1.26-2.05 1.26-.65 3.94-1.27-3.28-2.02 1.39-.72-2.05-3.28 3.3-3.3-1.97-9.18 1.27-2.62-1.94-.67-3.3-1.37 3.97-5.2-1.33 1.26 4.64-3.31-.7-1.27 1.37 3.31 2.64-2.7-.72 1.25 2.05-1.27 1.28-1.26-2.61v.65l-1.33.68.65-3.37-3.94-.6.65 4.54h-1.37l4 2.04h-1.95v1.27l-3.29-3.31-2.04.71.67 1.33-1.35-1.33v4.64l-4.57 1.27v4.63l3.92 4.64-1.29-.65-5.33 3.96-1.9-.67v-1.29l-2.06 1.29-.57 5.9 1.24-.57-2.61 1.9.7 3.28-2.05 1.4-1.27-1.4 1.27 3.34-1.27-1.27-1.35 2.61-.65-2.04-2.63 4.64v2.06l1.9 1.9 1.38-1.33v2.05l2.62-.72.67 1.4 2.62-1.4-.57 1.4-3.3 1.93h1.9v1.35h-.65l.49.88.48.17 1.65-1.05-.57 1.94 4.53-2.61v1.9h-2.62l1.38 1.38-2.05-.67h-3.96l1.35 2.63-1.35-1.28.67 4.64-1.96.59-1.98-4.54-1.96-.7.65 3.3-2.7-3.97.66 1.37h-1.9l1.24 1.9-1.26 1.4 1.92.67h-1.9l-.67 2.61v-2.04l-1.37 2.72 1.37-3.3-.7-.67-1.35-1.37v-2.63l-1.26 1.94v-2.58h-2.15v258.86H626.1V184.92l-2.36-3.1-6.58-2.04-8.62-5.9-1.94.69.7 1.35-3.29-1.35-2.04.67v-2.72l-7.28-3.28-2.61-5.23-10.54-6.58-.7.68v-1.4l-1.91.72-3.3-3.29-1.36-4.65 4-1.38 3.27-7.82 3.96-2.04.66-4 3.33-7.24-2.74 2.05-1.27-.72-.63-5.9 1.3.63 1.31-1.3-1.96-.66.66-1.96 1.96-1.33.67 1.9 1.94-3.86.68 3.3.67-3.3 1.94.57.67-1.9 1.37 3.3-1.37 1.9 2.62-1.25 2.04-3.94-2.04-2.05 4 .65-4-4.53 1.39.6.65-1.3 1.33 1.97-.65-2.64h1.94l1.35-3.29-.68-2.04h1.37v2.04l3.96-4.63-3.96-3.97-2.02 1.33 1.33 1.27h-2l-2.62-5.9h-1.4l2.05-2.62-7.94 5.9 4.65 1.35-2.04 4-1.94 1.23-2.57-.57-1.4 1.24v-1.9h-1.36l2.04-3.3-2.04.59-.6-1.29 2.64-3.29-5.33 2.62-.68 2.04-1.94-1.37 5.32-5.9-7.23 3.9-.68-1.29-3.33.72-3.29 1.9 2.64 1.37-3.97-.7 1.35 1.94-7.96-3.27-1.99-4.57-2.63 3.33-7.95-2.05-1.96 3.95 1.4-3.3-1.4-2.6-1.33.67-.65-2-2.63 2-1.94-2 1.94-1.96-2.62-.68-5.9 3.29.57-2.61-1.24 1.26-1.37-1.94-1.97 1.27.57-1.96-3.85.7-4.62-7.96h-1.37l.65 2.05-1.32-.7-3.3 2.62-4.57-6.58-1.33 1.96-.71-4-1.9 1.37.65 1.91-3.37-3.28.68 4 1.32.65-1.32 2.05-1.27-4.66Zm-32.9.71 1.6 8.64-2.28.6 1.31-1.33-1.29.67 1.27-2.63-1.27-2.66-4.63 3.29 2.63 1.33h-1.35v2.65l.68.45v1.51l-.68-1.96-.63 1.29-1.98-1.27v2.62h-1.33l12.56 1.33.64-2 6.62 3.96 6.61-3.97 1.94-3.28 2 .67v-2.68l1.97-.65-2.64-3.96h-2.65l-.64-1.96-1.98 2.63 1.33 3.29-2-4.64-.66 2-1.3-.65v3.94l-.66-3.29h-.67l-2-.65-3.95 1.33 2.66 3.96-2.66-1.35-.67-3.29-1.26 1.35.6.66h-.63v-3.33Zm131.32 52.8-3.33.64 1.33 1.98-4.62 1.35v3.27l.68 2.67-2 2.62 2-1.33 4.62 2.66h5.94l-.65-3.33-.68 1.32-3.29-.65v-2.61l1.96-.68-.67-2 3.33-2.62-1.98-1.32V131h-2.64l-.65-2.66Z" style="fill: rgb(209, 219, 221); fill-opacity: 1; stroke: rgb(0, 0, 0); stroke-width: 1.73674; stroke-miterlimit: 4; stroke-dasharray: none; filter: none;" data-originalStrokeWidth="1.73674"></path><path id="Queensland" class="country" fill="#d1dbdd" stroke="#000" d="m723.4 64.34-2.63.68-1.98 4-3.92 1.23.63 3.29-1.96 8.62h-.65l-.72 4.66h2.04l-2.63.59-.65 3.94 1.24 2.04 1.37-1.33-1.37 2.05-1.26-.72-.64 2.62-.67-4.66-3.33 5.33 1.94.72h-1.94l-2.64 6.55h1.96l-.67-2.61 2.04.57-1.37.67 2.62 2.05h3.37l-3.37 1.28 3.37 1.33-1.33.68.68 3.28-2.72-4.63-1.25 3.3-3.33 2.62 1.96 5.99-.67 1.96 1.35-.72-.68.72 1.37.67h-2.61l-3.42 9.85 3.42 7.29-2.05 6.58 2.62 11.89-4 10.58-1.9 7.94 1.32 3.3-4.61 13.19-5.34 6.58-1.26 8.6-6 4.65-11.16 2.64-1.33-.72-4-2.61-4.62-.68-2.61-3.28-4.68-2.05-1.25-5.9-2.6-2.62-8.63-2.63-10.56-1.33-5.59-7.46v226.73h64.3v52.49l164.63.19 2.74-1.48-.21-1.64 2.23-.17.27-3.5 3.42.3 2.4-3.7 1.73-.08 4.09 1.27 3.94.7 4.5-1.57 2.8-.31.65 1.64 2.23-.17 2.34.85 1.84.97 5.01.1 3.5.8 2.05 2.62 1.26 1.53 1.37 2.15.17 2.22 1.48 3.29 2.1-1.37.95-1.75 2.05-2.53 2.04-2.38 1.25 2.1 2.44.9 3.18-1.47.43-1.72 1.98-2.45-2.22.19-.84-3.29.25-2.32 2.8-.3 3.42-.27 2-1.96 2.75-1.9 2.9.85 2.53 2.53 3.2-1.48 2.9.89 1.72-.17 1.54-.72 1.65-1.24 2.8.27 3.02-.08.1-1.35-2.63-2.61-1.82-7.95-1.47-5.9-1.9-2.72-2.04 1.39 1.32-2.05-2.7-1.28 2.03-2-2.05-1.96 2.74-1.37-2.02-1.92v-2.05l3.29 3.97-1.96-5.9-.65 1.93 1.32-5.23-1.32-.84.65-5.73h-1.33l2.72-10.58h-1.4l-1.32-2.7-1.26 4 .57-3.3h-1.92l1.33-1.27-2.7-2.07v-3.94l2.04-1.96-3.96 1.29 3.29-1.27-.72-3.3-7.23-2.05 2.04-1.25-4-4.63.72-2.6-2.05-1.37-.71 1.37.71-2.04-4-1.96v.67l-3.3-3.29-3.28-8.62-2.61-.65.67-2.64-1.33 1.97v-1.97l-1.96-.65 1.27 2.62-2.6-1.3v1.3l-2.63-1.3v1.3l-8.6-11.8-1.96 2.56-2.72-3.96 1.39-.65-1.96-4 1.24-1.25-1.9-7.28h1.23l.67-5.29-1.24-3.33v2.05l-1.33-.68-1.39-2.61 2.05.65.67-.65-2.04-3.29v2.61l-.68-2.6-1.24-.68-.7 1.9 1.94 3.3-1.24-.59 1.26 3.3-9.21-6.67-3.29-5.23-.7 1.37-1.9 3.3 1.9 4.52 1.38 2.7-1.37-1.33-3.97-4.66-3.94 4.66 1.98-4.66h-2.7l1.37-.67-.65-1.24-2.63.67 2.63-1.37-4-9.21 1.37-7.23-.66 1.24-2.63-2.61-.7 1.37v-6.03l-2.63 1.37.71-2.04h-.71l1.28-3.3-2.61-2.6-1.96 1.36.59-2.61h-4.53l-.68-2.05 1.35-.67-3.29-1.96.57-1.33-1.9-1.94 1.9-.67-1.24-1.37 1.9.7.71-1.38 3.3 2.72-4.01-6.57-1.23.56v-1.96h-2.04l-.68-2.6h-2.61v2.6l-1.9-.65-2.76-2.63.7-.66V263l-3.3-1.94-4 .65-1.22-4.61h-2.04l1.37 3.28-2.74-.71-3.88-3.94 2.63 1.37-3.96-8.65v2.74l-5.9.57-2.72-5.9-.57 2.57h-2.05l-1.96-2.57-6.66-2.61-3.9-4.68 1.27-7.28h-2.6l-4.67-7.9 3.28-11.24h-1.24v-5.24l-3.94-7.28 1.24-3.29-3.29.72-7.86-10.58v-3.29h1.29v-4.66l-2.62-3.29-.71-7.27-2.58-2.63 3.3-3.94v-.68l-2.05.68-.6-3.3 2.64-3.28h-1.39l-1.24-2.72-4-.57-2.7-4-4.54-1.33-3.29-8.62-4 3.28-2.6-1.26-1.34 3.98-3.94 1.9-3.34-2.57-1.9-8.64-3.43-5.21 1.37-6.62-1.94-6.58.57-5.98-3.86 1.32 1.94-6-4-2.62v-2.57l-3.27-.72-.67-4.61 3.96-3.33-3.29-1.25-2.61.68-2-2v-9.91l-2.64-7.95h-1.94l-1.35-2.61v1.26l-2.61 1.35 3.29-5.33-.68-.57Zm-61.99 120.77-5.29 1.98-3.29 3.29 3.29 2 1.33-2 2 .67 1.96-3.94.65 1.98 2.62-.65Zm284.45 182.84-3.3 2.62 2.64 3.96-5.27 5.94h1.31l-1.33 4.64-1.28 3.27 2.61 4.66 5.97-17.86-1.35-2.61Z" style="fill: rgb(209, 219, 221); fill-opacity: 1; stroke: rgb(0, 0, 0); stroke-width: 1.73674; stroke-miterlimit: 4; stroke-dasharray: none; filter: none;" data-originalStrokeWidth="1.73674"></path><path id="Western_Australia" class="country" fill="#d1dbdd" stroke="#000" d="M441.49 532.42V152.77h-3.88l-1.27-1.35-2.59-.59-3.98.6 2.61 2.02.68 2.61-2.62-3.29 1.94 3.3-.67-.68-.68 1.35-1.26-1.35-.68 2.72-1.35-3.4-1.26 2.03 3.29 9.2h-1.35l-.68-3.3-3.28-3.29v5.33l-1.94 1.94 1.26-2.61-1.26-2.05 1.26-.56-.7-3.99 2.05-4.64h-1.37l2.72-.67-1.35-1.94 1.35-.67-4.64-3.31-.7 1.37-5.9-9.3-4.63-2.61-.7-2.62-1.94-.7.7 1.95-2.05-1.94-1.35 1.26v-1.26l-1.26 1.26-1.35-3.29-3.98-1.26v1.26l-2.62-.59 1.37 3.31 2.62 1.27-1.16-.1-3.5-.6.67 2.05-1.35 1.34-.59-1.34-.67 3.96-2.03-3.96-1.26.67 1.26-3.29-3.98 2.62-.57 1.34 1.27 1.27-2.62 1.35-.7-3.29h-1.26l1.27-1.35h-1.27l1.27-1.37-1.94 1.35-2.03-.67v1.37l-.59-1.37v1.37l3.88 1.91-2.61 2.05.67 1.94-1.94 1.35 1.27 2.61h-2.62v3.29l-2.02-1.94.68-2.61-2.62.59v-1.94l-1.94 5.22.57-5.9 1.37-1.94-2.61-1.35v7.26l-2.05-.68-1.26 2.61-.68-1.93-1.35 1.37.68-2.72-2.62 2.72 1.27.56-3.98 2.05 2.04 2.61h1.94l-2.61 2.03 3.96 1.26.67-1.26 1.27.59-2.62 2.7 3.3 1.26H367l-1.26-1.94-2.7 1.94-1.94-4.55-1.37.59.7 2.7-3.99.59 1.35.67-.67 2.05 3.98-2.72-3.98 3.37 1.37 1.26 3.29-1.91v1.26h1.26l-1.94 2.02 3.96 3.3-3.28-2.62-1.35 1.26-1.37-2.61-2.62-.68v-1.37l-1.94 1.37-1.34 2.62-.68-1.27-.67 1.94-2.62-.67.68.67-2.62 2.03 1.27.59-1.94.67 2.61 7.27.68-1.18v.49l1.35-1.94-1.16 1.07 1.75-3.1 2.02-1.26-1.35 1.26h2.02l-2.7 2.05-.58 4.64h1.26l-2.61 1.26 1.35.68-1.35.67-1.37-3.29-1.27 5.9 4.58-.67 2.61 1.35-5.9.67-1.27-1.35-1.37 1.35 1.16.7-3.1.57 1.94-.57-1.94-.7-2.02-2.61-4.55-2.02 1.94 2.02h-1.35l1.35 1.94-2.62-1.94v.59l-3.29-1.26h1.27l-.7-1.35h1.37l-2.61-1.35v1.35l-2.05-.68.68 1.35-1.27-1.35 1.27 2.03-1.27.67 2.62.59.7 1.35-2.05-.68 2.04 1.35h-4.63l3.26 1.94h-4.55l1.27 2.05.67-1.35 1.94.67-2.61 1.94 4.63 1.35 1.27 3.96 2.74-1.34v-1.27l1.24.6-3.29 3.28 1.35 1.35-2.04-.68 3.4 6.01-6.02-6-1.94.67 2.62 4.64-1.35-.66-1.27 3.3v3.28l-3.96-3.96-2.02-6.6-2.62-1.94v-5.31h-1.94l-2.04-1.94.67-2.72 2.05-.57-1.37-2.05-2.02.68-3.88 6.6 1.94 2.02-5.34-.67L309 195l1.27 2.61-2.62-1.27v1.27l-2.6.67L303 201l1.34.57-3.28 2.74-.68 5.9 1.94 4.64-1.26 4.56 4.63.67v2.61l-9.27 6.69-2.61.59-2.05 2.7 1.35 1.93-3.29.68.68 2.61-3.3 6.01-7.94 9.89-18.49 7.94-4.63.57h-4.58l-2.02 1.37-2.62 1.92-1.93-1.94-6.01-1.35.67 1.37v.68l-.67-.68-1.27-.7-.67.7-4.64 5.9-13.85 2.7v-1.35l-5.23 3.3.57 1.36h-1.94l-1.35 2.62-3.28.67v-.67l-5.23 2.61-3.99-1.94-.67-2.04-4.64 2.72-1.94-.68-1.37-.67 2.05-3.31h-1.37l-3.3 3.98.68.68h-1.35l-6.57 3.28-2.05-1.35-.57 3.3-5.33 2.6-1.94 4-3.29.67-3.29 5.3-12.6 3.32-5.23 3.29-.67 3.96-1.35.59-1.37-.6.7 2.62-1.95 3.3 1.27 1.36-1.27-.67.68 1.26-2.72 3.29-1.27-1.94-3.28 1.94 1.26-4.55-1.26 1.26-.68-4.57 2.62-7.93-4.64 1.35-6.6 15.79 3.29 8.62-1.27 3.96.7 7.84-6.68 9.3-1.27 11.8 5.23 8.65-.67 1.35 1.34 5.22 2.62 2.05 7.27 14.52 2.05.57.67 3.31h-2.04l.67 7.25-3.29 3.99-3.29-5.23-.67-7.27v3.29l-3.29 2.6.67-7.24-5.33-8.54-1.94 5.23 1.27 1.37v-2.72l2.02 9.97 6.6 5.23-.68 6-3.98 1.94-.67-4.63-.57 3.96-1.37-7.95-.68 3.99-2.61-10.56.67 8.62-2.02-1.37v-7.25l-.6 5.3-2.71-2.02 17.16 25.09 3.96 10.54-1.26 3.3 1.26 6.7 7.27 8.5 2.03 4-.68 2.6 5.9 7.93 2.72 9.3-.67 11.82v1.35l1.94 10.56 13.15 27.7.7 9.89 3.29-1.94v1.26l-3.3.68.68 3.29-1.37 2.04.7 4.64-2.62 5.23 1.92 15.2-7.16 8.53h-3.38l-3.88-2.61v13.85l2.62 7.25.67-1.27 3.88-.67 7.25 3.98 6.01 9.2 7.95 2.6.59-1.93 2.7 1.94h-3.3l5.23 3.3 2.05-1.93 3.86 1.94 9.3-1.27 5.24 3.29 1.35-2.72 5.9 2.05 1.35-.68-3.29-1.37 1.37-2.61 1.27-.68-.7 2.72h5.34l-.68-2.04 4.64-.68.67-3.96 5.9-2.61.7-2.62 3.29-1.37-1.35-1.26 8.62 2.63.68-2.61 2.61.67v-2.72l3.29.68-2.61-2.62 9.19-8.62h1.94l8.64 1.37 3.26-2.61 16.57-2.05 8.52 2.62 4.66-1.94 2.61 4.64h3.29l1.35-2.7 4.55 1.37.7-1.94 8.62-.68 1.92 1.27.7 2.7 4.63-3.3 3.29 1.27 9.21-9.2 2.7-10.57 2.61-2.72 11.93-3.86 23.72-13.95 5.23-1.27 9.99 1.27 11.13-.57 21.2-6.6ZM359.07 185.1l-3.3 1.37-1.15-1.27 1.16.57ZM115.6 398.3l-5.27-11.9v6.6l5.27 8.59Z" style="fill: rgb(209, 219, 221); fill-opacity: 1; stroke: rgb(0, 0, 0); stroke-width: 1.73674; stroke-miterlimit: 4; stroke-dasharray: none; filter: none;" data-originalStrokeWidth="1.73674"></path><path id="Victoria" class="country" fill="#d1dbdd" stroke="#000" d="m873.24 679.42-1.94-1.94h.59l-2.24-2.02-5.33-.38-25.36-12.6.49-4.16-1.06-3.4-2.23-3.2-1.75-3.77.57-3.58-4.34-2.32-2.83 1.05-2.21.89-2.32.38-3.3 1.05-4.56 1.27-6.01-1.44-3.29-1.85-2.7.97-2.04 2.13-3.67-.68-3.8-1.75-2.8.4-4.45-2.23-5.7.88-2.62-1.37-2.24.3-1.56 2.02.78 4.56-4.06.59-5.04-2.13-3.97-2.91-1.15-3.96-6.12-5.53-5.04-2.13-3.47-.1-4.45-6.39-1.94-8.51-3.1-1.27-5.33-.4-3-.67-3.3 1.64-.09 3.01-3.4-3.01-1.53-6.28-5.34-4.47-6.6-.76-5.41-.89-3.18 2.24-5.72-2.72-3.5.59-.2-.67v88.02l1.36.1 7.28 5.91v3.29l2.02-.67 1.94 1.34 3.98-4.63 7.93 3.96 5.23-1.35 24.4 13.28 9.98-9.9 7.86-5.32H767l1.35-3.96-4.64 1.35-2.61-2.05h3.28l8.52-6.57 3.98 7.94-3.98 5.23-5.9-1.26 5.9 5.22 3.98-2.61 2.03.67.59-5.3h4.64l1.37 3.96-2.62.67-.7 3.98 4.56 3.3 4.64-.68.7 1.35-1.95-.68 3.3 5.9 2.6-1.93 2.62 1.34-.68-2.02 2.72 5.33 3.3 3.3 1.26-8.65-3.99 2.63-1.26-5.22h6.6l7.84-2.62 12.6-13.28 8.6-5.22-10.54 4.55 5.9-3.86-.2-.3-1.73-1.74 4.55 1.35 5.33-2.03-.67 1.35 29.05-2.61Z" style="fill: rgb(209, 219, 221); fill-opacity: 1; stroke: rgb(0, 0, 0); stroke-width: 1.73674; stroke-miterlimit: 4; stroke-dasharray: none; filter: none;" data-originalStrokeWidth="1.73674"></path><path id="South_Australia" class="country" fill="#d1dbdd" stroke="#000" d="M441.47 411.65v120.77l1.47-.76 20.43-2.05 3.29-.67 13.28 1.35 7.27-3.97 12.48 6.58 9.27 7.3h5.9l-.63-1.31 1.37-.66h4.54l7.94 6.58h7.95l-2.04-1.9 1.37-.73 1.32 1.28 1.27-1.94 7.27 7.27-1.96.68v3.29l4-2.05 2.62.72 2.61 5.27-1.94 2.63.66-2h-3.3l1.27 2.7-1.26 1.9 2.63.7-1.39 1.93 4 3.96-1.28-3.96 1.96 3.96 1.94-1.26 3.96 2.63-1.96-1.96 3.33.6-1.37 1.36 3.95 5.34v3.86l7.29 6.7 3.94 17.81.72-2.04.67 2.04 1.25.6-2.64.64-1.33-2.6.68-.68-2.64-.66v-1.28l-2.04 4 2.76-1.39 7.9 9.9 3.3-1.95 3.32 4 1.27-7.3-4.6 1.97 1.96-1.37.66-5.27 2.63-1.3 1.37 1.32v-4.64l9.87-11.21 7.94-4-2.04.71 1.37-2.61 1.33 1.32 4.57-1.32 4.64-13.2 4-4.66 2.62 1.37v-13.28l3.29 7.27.65 6.01 1.96 1.96-5.25 4.62 3.96 7.27-7.9 7.95-1.96 5.9-1.37.68 1.37 3.96-2.05 3.9 1.37-.63.68 3.92-1.37 7.94-1.35 1.33-7.86-2.04-3.38 10 6.67-.67 5.27-4 4.63 1.96 2.64-1.29-1.4-1.32 3.3-7.3.71-6.57 3.94-9.2 9.28 16 .59 1.16-1.24.66-.66-2.05-.67 14.55-7.3 6.6 9.28.67 3.92-3.29 3.37.66 9.87 7.86-9.87-7.19 8.54 6.62 5.59 7.23-4.26-6.56 3.29 2.62 4 8.62-1.75-2.72 5.02 13.28-.65 3.29-3.3 3.29 2.58 3.94-1.25 1.96 5.25 7.23 7.63 10.33.32.93 3.94 3.33 7.86.56V411.65H626.1ZM621.82 628l-21.8 4.64-1.28 3.26 3.94 4.62 5.95-.65 4.64-1.3 5.22 2.63 2.68-1.96.65-2.66h8.58l1.33-2.64-4.62-1.98-2.65 3.27.65-3.29h-4.61Z" style="fill: rgb(209, 219, 221); fill-opacity: 1; stroke: rgb(0, 0, 0); stroke-width: 1.73674; stroke-miterlimit: 4; stroke-dasharray: none; filter: none;" data-originalStrokeWidth="1.73674"></path><path id="Tasmania" class="country" fill="#d1dbdd" stroke="#000" d="m752.5 732.27-1.97 3.96.64 7.9v2.66l1.33 1.33 3.94-4-.66-9.24Zm82.52 3.96-4 4.62 2.65.65v2.62l2.64 2.67 1.98 4.62 5.29-2-1.33-3.3-1.33 1.36 1.33-3.33.68-1.3h-2.68Zm8.56 15.85-7.27 3.3h6.62l.65 1.97 2.63-1.98ZM767.69 762l.66 5.23-2 4 2.67 11.18 4.62 6.64-1.33 1.33 6.62 8.55v5.97l1.94-2 3.29 5.94h1.32l-1.32 4.64-.64-3.96-5.94-5.27 1.96 11.84 2 .66 3.3 9.9 3.32 1.33 3.29 7.25h1.94l-1.27-.67 1.27-2.62 1.35 3.95H800l-.66 1.34-4.63-1.34v2l-1.33-.66 2 5.27 4.64-1.98 7.23 1.33-.63-2 2.63 4.62h3.94l2.66-3.95-1.98-2 2.65.65.64-2.61-1.96-.67 2.61-1.33-2.61-3.3.65-1.32v2l1.3 1.33.66-2v2l2.68 1.29.65-7.23 1.96.65v-3.94l-3.29-5.27 4.64 5.9 1.3-.63-1.32 3.94 2.61-1.98-.65-3.29 2-.67-3.29-2 3.3.67 1.32 3.33 2.61-.68 3.33-5.94-2-3.29 2.64-1.33.65-5.27-1.94.64 3.29-6.6h1.94l-1.96-.68 2.63-3.94-1.28 3.94 3.29 1.33v3.96l1.32-1.96-2-4.61.68-11.91-1.35-3.94 2-5.27-2-1.99 2-5.27-5.27-6.61-3.29-.68-1.35 3.96-3.94-1.96-4.64 5.27-3.3-1.98-3.3 2.66-2.63-1.33-4.62 1.96 3.3 3.33-.66 1.27-3.96-4.6-3.3 2.66.64 2.63-1.29-3.29-5.96 1.33-15.18-9.23h-3.96l-1.33-3.33v2.65l-2.61-.67v1.35Zm62.04 62.65-1.33 4 2.62.64-1.29 1.33 1.96 2.65 1.98-.65v-2.68l2.64 3.33-1.29-5.94-3.33.65Z" style="fill: rgb(209, 219, 221); fill-opacity: 1; stroke: rgb(0, 0, 0); stroke-width: 1.73674; stroke-miterlimit: 4; stroke-dasharray: none; filter: none;" data-originalStrokeWidth="1.73674"></path><path id="Australian_Capital_Territory" class="country" fill="#d1dbdd" stroke="#000" d="M850.9 623.92a9 9 0 0 1 4.21.78c1.14.53 1.52 1.27 1.45 2.1-.08.85-.65 1.78-1.32 2.77-1.31 2.02-3.12 4.24-3.02 6.2-.23 1.05-1.35 3.37-2.9 3.69-.77.14-1.71-.21-2.62-1.48a21 21 0 0 1-2.76-6.83 4.9 4.9 0 0 1 1.43-5.12 8.7 8.7 0 0 1 5.52-2.1Z" style="fill: rgb(209, 219, 221); fill-opacity: 1; stroke: rgb(0, 0, 0); stroke-width: 1.73674; stroke-miterlimit: 4; stroke-dasharray: none; filter: none;" data-originalStrokeWidth="1.73674"></path><rect id="selection-rectangle" fill="#ffffccaa" stroke="#222" stroke-width="0.6"></rect><ellipse id="selection-ellipse" fill="#ffffccaa" stroke="#222" stroke-width="0.6"></ellipse><polygon id="selection-polygon" fill="#ffffccaa" stroke="#222" stroke-width="0.6"></polygon><polyline id="selection-polyline" fill="#ffffccaa" stroke="#222" stroke-width="0.6"></polyline></svg></g><svg id="legend-svg" width="100%" height="100%" style="overflow:visible;" class="ui-draggable ui-draggable-handle" x="66.66666666666667" y="558.8399999999999"><g id="legend-g-svg" fill="#000" transform="translate(0,0) scale(1)" style="font-family: &quot;Century Gothic&quot;; font-weight: 400; font-style: normal;"><rect id="legend-bg-rect-svg" x="0" y="0" rx="2.4" ry="2.4" width="120" height="20" fill="#000000" stroke="#00000000" fill-opacity="0"></rect></g></svg><text id="credit-text-svg" font-family="Century Gothic,Segoe UI,Lucida Grande" font-size="7.5" font-weight="bold" fill="#000000"><tspan id="credit-tspan-svg" x="881.6398544311523" y="922.5431827545166" dy="0">Created with mapchart.net</tspan></text></svg>