<svg viewBox="0 0 800 1000" xmlns="http://www.w3.org/2000/svg" class="continent-map">
  <!-- South America Map -->
  
  <!-- Argentina -->
  <path id="Argentina" class="country" d="M300 600 L350 590 L400 600 L450 620 L480 650 L500 680 L520 720 L530 760 L540 800 L550 840 L560 880 L550 920 L530 950 L500 970 L460 980 L420 970 L380 950 L340 920 L300 880 L280 840 L270 800 L280 760 L290 720 L300 680 L310 640 Z"/>
  
  <!-- Chile -->
  <path id="Chile" class="country" d="M250 500 L280 490 L300 520 L310 560 L300 600 L290 640 L280 680 L270 720 L260 760 L250 800 L240 840 L230 880 L220 920 L210 960 L200 980 L180 970 L170 950 L180 920 L190 880 L200 840 L210 800 L220 760 L230 720 L240 680 L250 640 L260 600 L270 560 L260 520 Z"/>
  
  <!-- Brazil -->
  <path id="Brazil" class="country" d="M350 200 L400 190 L450 200 L500 220 L550 240 L600 260 L630 290 L650 320 L660 350 L650 380 L630 410 L600 440 L570 460 L540 480 L510 500 L480 520 L450 540 L420 560 L390 580 L360 600 L330 620 L300 640 L280 660 L260 680 L250 700 L260 720 L280 740 L310 760 L340 780 L370 800 L400 820 L430 840 L460 860 L490 880 L520 900 L550 920 L580 940 L610 960 L640 980 L620 990 L590 980 L560 970 L530 960 L500 950 L470 940 L440 930 L410 920 L380 910 L350 900 L320 890 L290 880 L270 870 L250 860 L240 840 L230 820 L240 800 L250 780 L260 760 L270 740 L280 720 L290 700 L300 680 L310 660 L320 640 L330 620 L340 600 L350 580 L360 560 L370 540 L380 520 L390 500 L400 480 L410 460 L420 440 L430 420 L440 400 L450 380 L460 360 L470 340 L480 320 L490 300 L500 280 L510 260 L520 240 L530 220 L540 200 L550 180 L560 160 L570 140 L580 120 L590 100 L600 80 L610 60 L620 40 L630 20 L620 10 L600 20 L580 30 L560 40 L540 50 L520 60 L500 70 L480 80 L460 90 L440 100 L420 110 L400 120 L380 130 L360 140 L340 150 L320 160 L300 170 L280 180 L260 190 L280 200 L300 190 L320 180 L340 170 L360 160 L380 150 L400 140 L420 130 L440 120 L460 110 L480 100 L500 90 L520 80 L540 70 L560 60 L580 50 L600 40 L620 30 L640 20 L660 30 L680 40 L700 50 L720 60 L740 70 L760 80 L780 90 L800 100 L780 110 L760 120 L740 130 L720 140 L700 150 L680 160 L660 170 L640 180 L620 190 L600 200 L580 210 L560 220 L540 230 L520 240 L500 250 L480 260 L460 270 L440 280 L420 290 L400 300 L380 310 L360 320 L340 330 L320 340 L300 350 L280 360 L260 370 L240 380 L220 390 L200 400 L180 410 L160 420 L140 430 L120 440 L100 450 L80 460 L60 470 L40 480 L20 490 L40 500 L60 510 L80 520 L100 530 L120 540 L140 550 L160 560 L180 570 L200 580 L220 590 L240 600 L260 610 L280 620 L300 630 L320 640 L340 650 L360 660 L380 670 L400 680 L420 690 L440 700 L460 710 L480 720 L500 730 L520 740 L540 750 L560 760 L580 770 L600 780 L620 790 L640 800 L660 810 L680 820 L700 830 L720 840 L740 850 L760 860 L780 870 L800 880 L780 890 L760 900 L740 910 L720 920 L700 930 L680 940 L660 950 L640 960 L620 970 L600 980 L580 990 L560 1000 L540 990 L520 980 L500 970 L480 960 L460 950 L440 940 L420 930 L400 920 L380 910 L360 900 L340 890 L320 880 L300 870 L280 860 L260 850 L240 840 L220 830 L200 820 L180 810 L160 800 L140 790 L120 780 L100 770 L80 760 L60 750 L40 740 L20 730 L40 720 L60 710 L80 700 L100 690 L120 680 L140 670 L160 660 L180 650 L200 640 L220 630 L240 620 L260 610 L280 600 L300 590 L320 580 L340 570 L360 560 L380 550 L400 540 L420 530 L440 520 L460 510 L480 500 L500 490 L520 480 L540 470 L560 460 L580 450 L600 440 L620 430 L640 420 L660 410 L680 400 L700 390 L720 380 L740 370 L760 360 L780 350 L800 340 L780 330 L760 320 L740 310 L720 300 L700 290 L680 280 L660 270 L640 260 L620 250 L600 240 L580 230 L560 220 L540 210 L520 200 L500 190 L480 180 L460 170 L440 160 L420 150 L400 140 L380 130 L360 120 L340 110 L320 100 L300 90 L280 80 L260 70 L240 60 L220 50 L200 40 L180 30 L160 20 L140 10 L160 0 L180 10 L200 20 L220 30 L240 40 L260 50 L280 60 L300 70 L320 80 L340 90 L360 100 L380 110 L400 120 L420 130 L440 140 L460 150 L480 160 L500 170 L520 180 L540 190 L560 200 L580 210 L600 220 L620 230 L640 240 L660 250 L680 260 L700 270 L720 280 L740 290 L760 300 L780 310 L800 320 L780 310 L760 300 L740 290 L720 280 L700 270 L680 260 L660 250 L640 240 L620 230 L600 220 L580 210 L560 200 L540 190 L520 180 L500 170 L480 160 L460 150 L440 140 L420 130 L400 120 L380 110 L360 100 L340 90 L320 80 L300 70 L280 60 L260 50 L240 40 L220 30 L200 20 L180 10 L160 0"/>
  
  <!-- Colombia -->
  <path id="Colombia" class="country" d="M200 100 L250 90 L300 100 L350 110 L400 120 L450 130 L500 140 L550 150 L600 160 L620 180 L600 200 L580 220 L560 240 L540 260 L520 280 L500 300 L480 320 L460 340 L440 360 L420 380 L400 400 L380 420 L360 440 L340 460 L320 480 L300 500 L280 520 L260 540 L240 560 L220 580 L200 600 L180 580 L160 560 L140 540 L120 520 L100 500 L80 480 L60 460 L40 440 L20 420 L40 400 L60 380 L80 360 L100 340 L120 320 L140 300 L160 280 L180 260 L200 240 L220 220 L240 200 L260 180 L280 160 L300 140 L320 120 L340 100 L360 80 L380 60 L400 40 L420 20 L440 0 L460 20 L480 40 L500 60 L520 80 L540 100 L560 120 L580 140 L600 160 L580 140 L560 120 L540 100 L520 80 L500 60 L480 40 L460 20 L440 0 L420 20 L400 40 L380 60 L360 80 L340 100 L320 120 L300 140 L280 160 L260 180 L240 200 L220 220 L200 240 L180 260 L160 280 L140 300 L120 320 L100 340 L80 360 L60 380 L40 400 L20 420 L0 400 L20 380 L40 360 L60 340 L80 320 L100 300 L120 280 L140 260 L160 240 L180 220 L200 200 L220 180 L240 160 L260 140 L280 120 L300 100 L320 80 L340 60 L360 40 L380 20 L400 0 L420 20 L440 40 L460 60 L480 80 L500 100 L520 120 L540 140 L560 160 L580 180 L600 200 L620 220 L640 240 L660 260 L680 280 L700 300 L720 320 L740 340 L760 360 L780 380 L800 400 L780 420 L760 440 L740 460 L720 480 L700 500 L680 520 L660 540 L640 560 L620 580 L600 600 L580 620 L560 640 L540 660 L520 680 L500 700 L480 720 L460 740 L440 760 L420 780 L400 800 L380 820 L360 840 L340 860 L320 880 L300 900 L280 920 L260 940 L240 960 L220 980 L200 1000 L180 980 L160 960 L140 940 L120 920 L100 900 L80 880 L60 860 L40 840 L20 820 L0 800 L20 780 L40 760 L60 740 L80 720 L100 700 L120 680 L140 660 L160 640 L180 620 L200 600"/>
  
  <!-- Peru -->
  <path id="Peru" class="country" d="M200 400 L250 390 L300 400 L350 410 L400 420 L450 430 L500 440 L520 460 L500 480 L480 500 L460 520 L440 540 L420 560 L400 580 L380 600 L360 620 L340 640 L320 660 L300 680 L280 700 L260 720 L240 740 L220 760 L200 780 L180 760 L160 740 L140 720 L120 700 L100 680 L80 660 L60 640 L40 620 L20 600 L40 580 L60 560 L80 540 L100 520 L120 500 L140 480 L160 460 L180 440 L200 420 Z"/>
  
  <!-- Venezuela -->
  <path id="Venezuela" class="country" d="M250 150 L300 140 L350 150 L400 160 L450 170 L500 180 L550 190 L600 200 L620 220 L600 240 L580 260 L560 280 L540 300 L520 320 L500 340 L480 360 L460 380 L440 400 L420 420 L400 440 L380 460 L360 480 L340 500 L320 520 L300 540 L280 560 L260 580 L240 600 L220 620 L200 640 L180 620 L160 600 L140 580 L120 560 L100 540 L80 520 L60 500 L40 480 L20 460 L40 440 L60 420 L80 400 L100 380 L120 360 L140 340 L160 320 L180 300 L200 280 L220 260 L240 240 L260 220 L280 200 L300 180 L320 160 L340 140 L360 120 L380 100 L400 80 L420 60 L440 40 L460 20 L480 0 L500 20 L520 40 L540 60 L560 80 L580 100 L600 120 L620 140 L640 160 L660 180 L680 200 L700 220 L720 240 L740 260 L760 280 L780 300 L800 320 L780 340 L760 360 L740 380 L720 400 L700 420 L680 440 L660 460 L640 480 L620 500 L600 520 L580 540 L560 560 L540 580 L520 600 L500 620 L480 640 L460 660 L440 680 L420 700 L400 720 L380 740 L360 760 L340 780 L320 800 L300 820 L280 840 L260 860 L240 880 L220 900 L200 920 L180 900 L160 880 L140 860 L120 840 L100 820 L80 800 L60 780 L40 760 L20 740 L0 720 L20 700 L40 680 L60 660 L80 640 L100 620 L120 600 L140 580 L160 560 L180 540 L200 520 L220 500 L240 480 L260 460 L280 440 L300 420 L320 400 L340 380 L360 360 L380 340 L400 320 L420 300 L440 280 L460 260 L480 240 L500 220 L520 200 L540 180 L560 160 L580 140 L600 120 L620 100 L640 80 L660 60 L680 40 L700 20 L720 0 L740 20 L760 40 L780 60 L800 80 L780 100 L760 120 L740 140 L720 160 L700 180 L680 200 L660 220 L640 240 L620 260 L600 280 L580 300 L560 320 L540 340 L520 360 L500 380 L480 400 L460 420 L440 440 L420 460 L400 480 L380 500 L360 520 L340 540 L320 560 L300 580 L280 600 L260 620 L240 640 L220 660 L200 680 L180 700 L160 720 L140 740 L120 760 L100 780 L80 800 L60 820 L40 840 L20 860 L0 880 L20 900 L40 920 L60 940 L80 960 L100 980 L120 1000 L140 980 L160 960 L180 940 L200 920 L220 900 L240 880 L260 860 L280 840 L300 820 L320 800 L340 780 L360 760 L380 740 L400 720 L420 700 L440 680 L460 660 L480 640 L500 620 L520 600 L540 580 L560 560 L580 540 L600 520 L620 500 L640 480 L660 460 L680 440 L700 420 L720 400 L740 380 L760 360 L780 340 L800 320 L780 300 L760 280 L740 260 L720 240 L700 220 L680 200 L660 180 L640 160 L620 140 L600 120 L580 100 L560 80 L540 60 L520 40 L500 20 L480 0 L460 20 L440 40 L420 60 L400 80 L380 100 L360 120 L340 140 L320 160 L300 180 L280 200 L260 220 L240 240 L220 260 L200 280 L180 300 L160 320 L140 340 L120 360 L100 380 L80 400 L60 420 L40 440 L20 460 L0 480 L20 500 L40 520 L60 540 L80 560 L100 580 L120 600 L140 620 L160 640 L180 660 L200 680 L220 700 L240 720 L260 740 L280 760 L300 780 L320 800 L340 820 L360 840 L380 860 L400 880 L420 900 L440 920 L460 940 L480 960 L500 980 L520 1000 L540 980 L560 960 L580 940 L600 920 L620 900 L640 880 L660 860 L680 840 L700 820 L720 800 L740 780 L760 760 L780 740 L800 720 L780 700 L760 680 L740 660 L720 640 L700 620 L680 600 L660 580 L640 560 L620 540 L600 520 L580 500 L560 480 L540 460 L520 440 L500 420 L480 400 L460 380 L440 360 L420 340 L400 320 L380 300 L360 280 L340 260 L320 240 L300 220 L280 200 L260 180 L240 160 L220 140 L200 120 L180 100 L160 80 L140 60 L120 40 L100 20 L80 0 L100 20 L120 40 L140 60 L160 80 L180 100 L200 120 L220 140 L240 160 L260 180 L280 200 L300 220 L320 240 L340 260 L360 280 L380 300 L400 320 L420 340 L440 360 L460 380 L480 400 L500 420 L520 440 L540 460 L560 480 L580 500 L600 520 L620 540 L640 560 L660 580 L680 600 L700 620 L720 640 L740 660 L760 680 L780 700 L800 720"/>
  
  <!-- Ecuador -->
  <path id="Ecuador" class="country" d="M150 300 L200 290 L250 300 L300 310 L350 320 L400 330 L420 350 L400 370 L380 390 L360 410 L340 430 L320 450 L300 470 L280 490 L260 510 L240 530 L220 550 L200 570 L180 550 L160 530 L140 510 L120 490 L100 470 L80 450 L60 430 L40 410 L20 390 L40 370 L60 350 L80 330 L100 310 L120 290 L140 270 Z"/>
  
  <!-- Bolivia -->
  <path id="Bolivia" class="country" d="M300 500 L350 490 L400 500 L450 510 L500 520 L550 530 L580 550 L560 570 L540 590 L520 610 L500 630 L480 650 L460 670 L440 690 L420 710 L400 730 L380 750 L360 770 L340 790 L320 810 L300 830 L280 810 L260 790 L240 770 L220 750 L200 730 L180 710 L160 690 L140 670 L120 650 L100 630 L80 610 L60 590 L40 570 L20 550 L40 530 L60 510 L80 490 L100 470 L120 450 L140 430 L160 410 L180 390 L200 370 L220 350 L240 330 L260 310 L280 290 L300 270 Z"/>
  
  <!-- Uruguay -->
  <path id="Uruguay" class="country" d="M500 750 L530 740 L560 750 L580 770 L570 790 L550 810 L530 830 L510 850 L490 870 L470 890 L450 910 L430 930 L410 950 L390 970 L370 990 L350 1000 L330 980 L310 960 L290 940 L270 920 L250 900 L230 880 L210 860 L190 840 L170 820 L150 800 L130 780 L110 760 L90 740 L70 720 L50 700 L30 680 L10 660 L30 640 L50 620 L70 600 L90 580 L110 560 L130 540 L150 520 L170 500 L190 480 L210 460 L230 440 L250 420 L270 400 L290 380 L310 360 L330 340 L350 320 L370 300 L390 280 L410 260 L430 240 L450 220 L470 200 L490 180 L510 160 L530 140 L550 120 L570 100 L590 80 L610 60 L630 40 L650 20 L670 0 L690 20 L710 40 L730 60 L750 80 L770 100 L790 120 L800 140 L780 160 L760 180 L740 200 L720 220 L700 240 L680 260 L660 280 L640 300 L620 320 L600 340 L580 360 L560 380 L540 400 L520 420 L500 440 L480 460 L460 480 L440 500 L420 520 L400 540 L380 560 L360 580 L340 600 L320 620 L300 640 L280 660 L260 680 L240 700 L220 720 L200 740 L180 760 L160 780 L140 800 L120 820 L100 840 L80 860 L60 880 L40 900 L20 920 L0 940 L20 960 L40 980 L60 1000 L80 980 L100 960 L120 940 L140 920 L160 900 L180 880 L200 860 L220 840 L240 820 L260 800 L280 780 L300 760 L320 740 L340 720 L360 700 L380 680 L400 660 L420 640 L440 620 L460 600 L480 580 L500 560 L520 540 L540 520 L560 500 L580 480 L600 460 L620 440 L640 420 L660 400 L680 380 L700 360 L720 340 L740 320 L760 300 L780 280 L800 260 L780 240 L760 220 L740 200 L720 180 L700 160 L680 140 L660 120 L640 100 L620 80 L600 60 L580 40 L560 20 L540 0 L520 20 L500 40 L480 60 L460 80 L440 100 L420 120 L400 140 L380 160 L360 180 L340 200 L320 220 L300 240 L280 260 L260 280 L240 300 L220 320 L200 340 L180 360 L160 380 L140 400 L120 420 L100 440 L80 460 L60 480 L40 500 L20 520 L0 540 L20 560 L40 580 L60 600 L80 620 L100 640 L120 660 L140 680 L160 700 L180 720 L200 740 L220 760 L240 780 L260 800 L280 820 L300 840 L320 860 L340 880 L360 900 L380 920 L400 940 L420 960 L440 980 L460 1000 L480 980 L500 960 L520 940 L540 920 L560 900 L580 880 L600 860 L620 840 L640 820 L660 800 L680 780 L700 760 L720 740 L740 720 L760 700 L780 680 L800 660 L780 640 L760 620 L740 600 L720 580 L700 560 L680 540 L660 520 L640 500 L620 480 L600 460 L580 440 L560 420 L540 400 L520 380 L500 360 L480 340 L460 320 L440 300 L420 280 L400 260 L380 240 L360 220 L340 200 L320 180 L300 160 L280 140 L260 120 L240 100 L220 80 L200 60 L180 40 L160 20 L140 0 L160 20 L180 40 L200 60 L220 80 L240 100 L260 120 L280 140 L300 160 L320 180 L340 200 L360 220 L380 240 L400 260 L420 280 L440 300 L460 320 L480 340 L500 360 L520 380 L540 400 L560 420 L580 440 L600 460 L620 480 L640 500 L660 520 L680 540 L700 560 L720 580 L740 600 L760 620 L780 640 L800 660"/>
  
  <!-- Country Labels -->
  <text x="400" y="750" text-anchor="middle" font-size="16" font-weight="bold" fill="#333">Argentina</text>
  <text x="235" y="650" text-anchor="middle" font-size="14" font-weight="bold" fill="#333">Chile</text>
  <text x="500" y="500" text-anchor="middle" font-size="18" font-weight="bold" fill="#333">Brazil</text>
  <text x="350" y="250" text-anchor="middle" font-size="14" font-weight="bold" fill="#333">Colombia</text>
  <text x="300" y="450" text-anchor="middle" font-size="12" font-weight="bold" fill="#333">Peru</text>
  <text x="450" y="300" text-anchor="middle" font-size="12" font-weight="bold" fill="#333">Venezuela</text>
  <text x="225" y="350" text-anchor="middle" font-size="10" font-weight="bold" fill="#333">Ecuador</text>
  <text x="400" y="650" text-anchor="middle" font-size="11" font-weight="bold" fill="#333">Bolivia</text>
  <text x="530" y="820" text-anchor="middle" font-size="10" font-weight="bold" fill="#333">Uruguay</text>
</svg>