<?xml version="1.0" encoding="UTF-8"?>
<svg viewBox="0 0 800 1000" xmlns="http://www.w3.org/2000/svg" class="continent-map">
  <!-- South America Map with Game-Compatible Structure -->
  
  <!-- Brazil -->
  <path id="Brazil" class="country" d="M350 150 L550 140 L600 180 L650 220 L680 280 L700 350 L680 420 L650 480 L600 520 L550 550 L500 580 L450 600 L400 620 L350 640 L320 660 L300 680 L280 700 L260 720 L280 740 L300 760 L320 780 L350 800 L380 820 L420 840 L460 860 L500 880 L540 900 L580 920 L620 940 L600 960 L580 970 L560 980 L540 990 L520 1000 L500 990 L480 980 L460 970 L440 960 L420 950 L400 940 L380 930 L360 920 L340 910 L320 900 L300 890 L280 880 L260 870 L240 860 L220 850 L200 840 L180 830 L160 820 L140 810 L120 800 L100 790 L80 780 L60 770 L40 760 L20 750 L40 740 L60 730 L80 720 L100 710 L120 700 L140 690 L160 680 L180 670 L200 660 L220 650 L240 640 L260 630 L280 620 L300 610 L320 600 L340 590 L360 580 L380 570 L400 560 L420 550 L440 540 L460 530 L480 520 L500 510 L520 500 L540 490 L560 480 L580 470 L600 460 L620 450 L640 440 L660 430 L680 420 L700 410 L720 400 L740 390 L760 380 L780 370 L800 360 L780 350 L760 340 L740 330 L720 320 L700 310 L680 300 L660 290 L640 280 L620 270 L600 260 L580 250 L560 240 L540 230 L520 220 L500 210 L480 200 L460 190 L440 180 L420 170 L400 160 L380 150 Z"/>
  
  <!-- Argentina -->
  <path id="Argentina" class="country" d="M300 600 L350 590 L400 600 L450 620 L480 650 L500 680 L520 720 L530 760 L540 800 L550 840 L560 880 L550 920 L530 950 L500 970 L460 980 L420 970 L380 950 L340 920 L300 880 L280 840 L270 800 L280 760 L290 720 L300 680 L310 640 Z"/>
  
  <!-- Chile -->
  <path id="Chile" class="country" d="M250 500 L280 490 L300 520 L310 560 L300 600 L290 640 L280 680 L270 720 L260 760 L250 800 L240 840 L230 880 L220 920 L210 960 L200 980 L180 970 L170 950 L180 920 L190 880 L200 840 L210 800 L220 760 L230 720 L240 680 L250 640 L260 600 L270 560 L260 520 Z"/>
  
  <!-- Colombia -->
  <path id="Colombia" class="country" d="M200 100 L300 90 L400 100 L500 110 L600 120 L650 150 L680 180 L700 220 L680 260 L650 300 L600 340 L550 380 L500 420 L450 460 L400 500 L350 540 L300 580 L250 620 L200 660 L150 700 L100 740 L50 780 L20 820 L40 860 L60 900 L80 940 L100 980 L120 1000 L140 980 L160 960 L180 940 L200 920 L220 900 L240 880 L260 860 L280 840 L300 820 L320 800 L340 780 L360 760 L380 740 L400 720 L420 700 L440 680 L460 660 L480 640 L500 620 L520 600 L540 580 L560 560 L580 540 L600 520 L620 500 L640 480 L660 460 L680 440 L700 420 L720 400 L740 380 L760 360 L780 340 L800 320 L780 300 L760 280 L740 260 L720 240 L700 220 L680 200 L660 180 L640 160 L620 140 L600 120 L580 100 L560 80 L540 60 L520 40 L500 20 L480 0 L460 20 L440 40 L420 60 L400 80 L380 100 L360 120 L340 140 L320 160 L300 180 L280 200 L260 220 L240 240 L220 260 L200 280 L180 300 L160 320 L140 340 L120 360 L100 380 L80 400 L60 420 L40 440 L20 460 L0 480 L20 500 L40 520 L60 540 L80 560 L100 580 L120 600 L140 620 L160 640 L180 660 L200 680 Z"/>
  
  <!-- Peru -->
  <path id="Peru" class="country" d="M200 400 L300 390 L400 400 L500 410 L600 420 L650 450 L680 480 L700 520 L680 560 L650 600 L600 640 L550 680 L500 720 L450 760 L400 800 L350 840 L300 880 L250 920 L200 960 L150 1000 L120 980 L100 960 L80 940 L60 920 L40 900 L20 880 L0 860 L20 840 L40 820 L60 800 L80 780 L100 760 L120 740 L140 720 L160 700 L180 680 L200 660 L220 640 L240 620 L260 600 L280 580 L300 560 L320 540 L340 520 L360 500 L380 480 L400 460 L420 440 L440 420 L460 400 L480 380 L500 360 L520 340 L540 320 L560 300 L580 280 L600 260 L620 240 L640 220 L660 200 L680 180 L700 160 L720 140 L740 120 L760 100 L780 80 L800 60 L780 40 L760 20 L740 0 L720 20 L700 40 L680 60 L660 80 L640 100 L620 120 L600 140 L580 160 L560 180 L540 200 L520 220 L500 240 L480 260 L460 280 L440 300 L420 320 L400 340 L380 360 L360 380 L340 400 L320 420 L300 440 L280 460 L260 480 L240 500 L220 520 L200 540 Z"/>
  
  <!-- Venezuela -->
  <path id="Venezuela" class="country" d="M300 50 L400 40 L500 50 L600 60 L700 70 L750 100 L780 130 L800 170 L780 210 L750 250 L700 290 L650 330 L600 370 L550 410 L500 450 L450 490 L400 530 L350 570 L300 610 L250 650 L200 690 L150 730 L100 770 L50 810 L0 850 L20 890 L40 930 L60 970 L80 1000 L100 970 L120 940 L140 910 L160 880 L180 850 L200 820 L220 790 L240 760 L260 730 L280 700 L300 670 L320 640 L340 610 L360 580 L380 550 L400 520 L420 490 L440 460 L460 430 L480 400 L500 370 L520 340 L540 310 L560 280 L580 250 L600 220 L620 190 L640 160 L660 130 L680 100 L700 70 L720 40 L740 10 L760 -20 L780 -50 L800 -80 L780 -110 L760 -140 L740 -170 L720 -200 L700 -230 L680 -260 L660 -290 L640 -320 L620 -350 L600 -380 L580 -410 L560 -440 L540 -470 L520 -500 L500 -530 L480 -560 L460 -590 L440 -620 L420 -650 L400 -680 L380 -710 L360 -740 L340 -770 L320 -800 L300 -830 Z"/>
  
  <!-- Ecuador -->
  <path id="Ecuador" class="country" d="M150 300 L250 290 L350 300 L450 310 L500 340 L480 380 L460 420 L440 460 L420 500 L400 540 L380 580 L360 620 L340 660 L320 700 L300 740 L280 780 L260 820 L240 860 L220 900 L200 940 L180 980 L160 1000 L140 980 L120 960 L100 940 L80 920 L60 900 L40 880 L20 860 L0 840 L20 820 L40 800 L60 780 L80 760 L100 740 L120 720 L140 700 L160 680 L180 660 L200 640 L220 620 L240 600 L260 580 L280 560 L300 540 L320 520 L340 500 L360 480 L380 460 L400 440 L420 420 L440 400 L460 380 L480 360 L500 340 Z"/>
  
  <!-- Bolivia -->
  <path id="Bolivia" class="country" d="M300 500 L400 490 L500 500 L600 510 L650 540 L680 570 L700 610 L680 650 L650 690 L600 730 L550 770 L500 810 L450 850 L400 890 L350 930 L300 970 L250 1000 L220 980 L200 960 L180 940 L160 920 L140 900 L120 880 L100 860 L80 840 L60 820 L40 800 L20 780 L0 760 L20 740 L40 720 L60 700 L80 680 L100 660 L120 640 L140 620 L160 600 L180 580 L200 560 L220 540 L240 520 L260 500 L280 480 L300 460 Z"/>
  
  <!-- Uruguay -->
  <path id="Uruguay" class="country" d="M500 750 L550 740 L600 750 L630 780 L620 810 L600 840 L580 870 L560 900 L540 930 L520 960 L500 990 L480 1000 L460 990 L440 980 L420 970 L400 960 L380 950 L360 940 L340 930 L320 920 L300 910 L280 900 L260 890 L240 880 L220 870 L200 860 L180 850 L160 840 L140 830 L120 820 L100 810 L80 800 L60 790 L40 780 L20 770 L0 760 L20 750 L40 740 L60 730 L80 720 L100 710 L120 700 L140 690 L160 680 L180 670 L200 660 L220 650 L240 640 L260 630 L280 620 L300 610 L320 600 L340 590 L360 580 L380 570 L400 560 L420 550 L440 540 L460 530 L480 520 L500 510 Z"/>
  
  <!-- Paraguay -->
  <path id="Paraguay" class="country" d="M400 600 L500 590 L600 600 L650 630 L680 660 L700 700 L680 740 L650 780 L600 820 L550 860 L500 900 L450 940 L400 980 L350 1000 L320 980 L300 960 L280 940 L260 920 L240 900 L220 880 L200 860 L180 840 L160 820 L140 800 L120 780 L100 760 L80 740 L60 720 L40 700 L20 680 L0 660 L20 640 L40 620 L60 600 L80 580 L100 560 L120 540 L140 520 L160 500 L180 480 L200 460 L220 440 L240 420 L260 400 L280 380 L300 360 L320 340 L340 320 L360 300 L380 280 L400 260 Z"/>
</svg>