<?xml version="1.0" encoding="utf-8"?>
<!-- Generator: Adobe Illustrator 24.0.1, SVG Export Plug-In . SVG Version: 6.00 Build 0)  -->
<svg version="1.1" id="katman_1" xmlns="http://www.w3.org/2000/svg" xmlns:xlink="http://www.w3.org/1999/xlink" x="0px" y="0px"
	 viewBox="0 0 800 533" style="enable-background:new 0 0 800 533;" xml:space="preserve">
<style type="text/css">
	.st0{fill:none;enable-background:new    ;}
	.st1{fill:none;}
	.st2{font-family:'ArialMT';}
	.st3{font-size:14px;}
	.st4{enable-background:new    ;}
	.st5{font-family:'Tahoma';}
	.st6{font-size:17px;}
	.st7{font-size:13px;}
	.st8{font-size:15px;}
	.st9{font-size:12.9994px;}
	.st10{fill:none;stroke:#444444;stroke-width:0.75;stroke-miterlimit:11;}
	.st11{font-size:12.9988px;}
</style>
<path class="st0" d="M0,0"/>
<path class="st1" d="M790,261.5h10v10h-10V261.5z"/>
<path class="st1" d="M5,5"/>
<text transform="matrix(1 0 0 1 680 513.3333)" class="st2 st3">paintmaps.com</text>
<path class="st4" d="M0,0"/>
<text transform="matrix(1 0 0 1 432.4437 213.9703)" class="st5 st6">Brazil</text>
<text transform="matrix(1 0 0 1 198.7017 141.9023)" class="st5 st7">Ecuador</text>
<text transform="matrix(1 0 0 1 310.1263 63.9821)" class="st5 st3">Venezuela</text>
<text transform="matrix(0.2048 -0.9788 0.9788 0.2048 310.1265 380.8175)" class="st5 st8">Chile</text>
<text transform="matrix(1 0 0 1 340.5095 363.7098)" class="st5 st3">Argentina</text>
<text transform="matrix(1 0 0 1 289.317 209.5254)" class="st5 st3">Peru</text>
<text transform="matrix(0.663 0.7486 -0.7486 0.663 422.6319 358.7317)" class="st5 st7">Uruguay</text>
<text transform="matrix(0.6757 0.7372 -0.7372 0.6757 377.6971 256.7461)" class="st5 st7">Paraguay</text>
<text transform="matrix(1 0 0 1 342.1094 246.2503)" class="st5 st3">Bolivia</text>
<text transform="matrix(0.6967 -0.7173 0.7173 0.6967 426.3615 77.6412)" class="st5 st9">Suriname</text>
<text transform="matrix(0.6675 -0.7446 0.7446 0.6675 404.0322 63.9828)" class="st5 st7">Guyana</text>
<text transform="matrix(1 0 0 1 271.2604 104.2737)" class="st5 st3">Colombia</text>
<g>
	<path class="st10" d="M450.1,126.6l-0.6,3.3l-3.6,2.7l-1.2-0.3l2.1-2.4l1.3-3.1L450.1,126.6z M452.5,125l-1-0.6l0.7-1.5l2.2,0.7
		L452.5,125z M462.5,123l0.9,0.6l-0.7,0.7L460,124L462.5,123z M457.5,121.3l4-0.6l0.8,0.7l-2.3,1.9l-3.5-0.6L457.5,121.3z
		 M456.9,120.2l0.6-1.3l1.3,0.7l-3.5,2.2l1.2-3.1L456.9,120.2z M424.1,343.7l0.5-2.2l2-2.7l1.3,0.9l1.7-2.2l-0.6-1.7l-2.6,2
		l-2.5-2.2l-0.6-1.9l-2-1l-2.4-3l-3.7-1.7l-1.7-2.5l-2.4,1.4l0.1-1.8l-4.5-4.7l-2.2,1.1l-2.2-0.7l1.7-1.3l5.2-6l3.8-5.2l2.7-2
		l1.7-0.4l0.8-1.4l6.1-2.7l0.9-1.9l0.4-4.2l-1.2-3.9l-1.1-0.9l-2.9,0.3v-0.3l-0.1-0.6l2-2.4l0.3-6.4l-2.1-1.8l-1.8,1l-2.7-0.1
		l-1.2-6.3l0.1-2.4l-1.4-2l-1.9-0.3l-1.3-1.3l-2.5,1.3l-2.2-0.7l-3.8-0.3l-0.8-0.7l1.1-6.9l-2-5.2l1.8-1.2l-1.6-1.6l2.1-4.3l1.6-5.6
		l-1.4-4.1l-3.6-2l-0.5-6.1l-10.4-0.4l-0.7-5.1l-2.1-2.7h1.9l-0.1-3.1l-1.1-2.3v-3.1l-3.7-2.2l-5.1,0.5l-2.1-2.7L371,209l-1.8-2.2
		l-2,0.2l-2.6-1.4l-0.8,0.7l-3-0.6l-0.5-1.3l-3.5-1.6l-1.3-1.6l-1.5-3.9l-0.3-4.7l0.7-1.5l-0.2-2.6l-1-1l-7.6,1.8l-2.7,2.5l-1.8,0.6
		l-2.3,2.6l-2.4,0.1l-1.2,1.9l-3.1,1.2l0.1-0.8l-5.3-0.1h-2.4l-2.1,1.1l-2.3-0.2l-0.6-9.6l-4.8,3.2l-5.2,0.5l-1-3.1l-3.4-0.5
		l-2.6,0.2l1.5-2.3l-1.6-2.3l-2.5-2l-1.6-3.8l-2.2-1.4l1.8-1.8l-0.6-2.7l3.9-3.6l-0.9-2.3l1.4-2.6l0.2-4l1.9-0.9l3.5-3.2l1.9-1
		l5.4-1.1l0.8-1.4l3.5-0.3l0.8,1.1l1.6-0.9l2.4-21.4l-1.8-3l-0.1-1.5l-3.3-2.4l-0.2-5.1l3.8-1.3l2.6,0.3l-1.8-2.8l-3.4,0.3l-0.3-4.6
		l11.9-0.9l-0.4-2l1.5,1.8l2.8-2.3l1.7-0.3l1.7,2.6l0.6,3.8l1.3-0.5l3.4,2.8l1.8,0.4l4-1.9l0.3,2.3l2.9-3.5l2.8-1l4.5-3l0.6-2.3
		l4.1-1.4l0.2-2l-4.7-0.2l0.3-1.7l-1.7-3v-3.4l-2.4-1.8l-2.1-2.8l1.7,0.9l3.3,0.1l0.5,1.3l4.6-0.5l3.6,2.8l1.3-0.7l-0.2-2.6l2.7-1.2
		l1.4,0.6l4.5-1.2l2-2l2,0.1l2.9-2.8l-0.9-2.2l3.8-0.5l1.7,1.3l-1.2,4.2l3.3,1l-0.3,1.5l1.5,1.8l-2.2,2.3l-1.2,6.6l1.8,3.1v2.9
		l3.6,3.5l2.4,1.1l2.7-0.3l1.4-2.3l5.5-0.7l1.6-1.8l1.7-0.3l2.1,1.1l2.3-0.5l3.2,0.9l0.8-1.4l-1.4-2.2l1-1.3l1.8,0.9l5.3-0.9
		l2.5,1.6l3.4,1.7l2.2-1.4l3.5-0.1l2.7,1.4l1.8-1.2l5.7-9.4l1.6-1.9l2.1-0.8v-2.4l2,2.2l0.1,3.8l2.9,10.9l0.7,1.5l0.8-1.5l1.8,2.8
		l1.9,1.3l-0.4,4.2l-1.4,2.2l-2.6,0.6l-2.5,3.2l-3.4,1.9l0.7,1l-2,1l-2,2.2l-0.3,2l-1.5,1.9l-1.9,0.1l-3.6,1.5l3-0.4l0.1,1.3
		l2.4-0.8l7.8-3.9l-1,1.3l1.7,4.8l1.5,1l3.2-0.5l2.2,0.8l2.3-1.3l-1.8,6.3l2.4-4.6l2-2.2l-0.1,1.3l2.5-2.6l1.4,1.9v-3.4l3.2-3.2
		l2.2-0.6l1.5,1.6l0.3-1.1l4.4,1.3l2.2,2.3l2.2-0.5l-0.5,1.5l1.8-0.3l1.7,2.3l1-0.6l1.2,3.5l2.5-2.4l1.1,2.6l1.8,1.2l0.5,3.9
		l-1.8,1.9l1.2,1.8l0.7-2.7l2.1-0.8v1.1l-2.1,1.4l1.9,0.1l2.2-1.4l0.8-1.8l1.4,2.2l0.2-1.5l4.9,2.2l3,2.3l6,1.4l5.8-0.1l3.5,0.9
		l3.9,2.9l4.2,4.1l1.2,0.3l2,3.5l2.9,3.6l1.8,0.9l0.7,1.6l3.9,2.2l3.8,0.1l3.1,1.2l1.2,2.6l0.7,9.8l0.4,1.9l-1,4.9l-3.4,6.2L550,198
		l-8.6,7.3l-3.5,1.3l-4.2,4.6l-1.9,3l-3.1,3.5l-3.3,2l0.3-2L524,218l1,1.3l-2.6,1.5v2.5l-1.3,1.8l0.8,0.6l-1.6,4.3l0.2,7.7l-3.4,8.2
		l-0.1,3.4l-2.5,1.8l-1.8,3.1L512,260l-2.2,1.9l-2.6,4.5l-2.6,1.9l-2.6,4.1l0.3,2.8l-4.4,1.5l-2,1.4l0.3,1.6l-1.1,1l-5.8-0.6v-2
		l-1.2,0.4l0.1,1.6l-3.7-1l-5.1,0.7l0.5,1.6l-1.8-0.3l-3.4,1.7l0.9,1.6l-3.5-1.3l-1.7,0.4l-5.1,2.5l-0.3,0.7l-3.4,1.8l-4.7,4.5
		l-1.9,2.3l0.3,2.4l-1.2,2l0.2,5.2l1,0.8l-3.1,7.3l-3.1,1.8l-2.9,3.1l-1.5,2.3l-1.8,4.1l-2.5,3.6l-2.6,2.7l-4.1,2.7l4-3.5l0.3-1.9
		l2.5-1.6l0.4-2.8l-3-1.3l0.2,1.2l-1.2,1.9l-0.5,2.7l-2.8,1.3l-1.7,2.7l-0.5,3.6l-2.3,5.3l-4.3,4l-0.9-0.7L424.1,343.7z
		 M469.7,125.9l-1.1,4.3l-2.3,2l-0.1,1.6l-2.5,1l-1.9-0.1l-2.6,1.2l-1.3-1.2l-0.9,0.7l-3.1-0.3l-1.2-2.4l0.6-4.3l-0.4-0.7l1.3-3
		l2.1-1l4.9,1.3l3.1-0.5L469.7,125.9z"/>
	<path class="st10" d="M251.7,151.5l-1,0.3l0.1-2.1l2.1-0.3L251.7,151.5z M250.5,154.5l2.4-1.7l1-4.6l-1.4-3l0.3,2.6h-1.4l-1.4,1.9
		l-2.6-1.6l-1.8-0.4l0.9-1.6l-1.2-3.2l0.4-2l-1.5-1.7l2.3-1.6l-0.1-3.6l2.5-3.4l-0.6-5.6l3.9-2.2l3.2-0.7l0.9-2.4l2,1.4l3.4,1.5
		l3.2,0.3l1.6,1l0.5,1.7l3.8,0.7l3.4-0.5l0.5-1.5l1.9,0.5l2,1.8l3.7,1l-2.4,0.3l2.8,2.6l0.6,3.1l-1.3-0.2l-0.6,4.1l-3.2,4.7
		l-3.7,3.6l-7.6,3.8l-2,3l-1.1,0.5v2.5l-1.3,4l0.3,1.5l-1.5,1.6l-0.7,1.9l-2.8-1l-0.6-1.8l-2.2-0.1l-2.3-1l-1.6,1.5l-0.9-3.1l2-1.1
		L250.5,154.5z"/>
	<path class="st10" d="M383,57.7l-2.2,0.2l-0.3-0.9l2-0.9L383,57.7z M357.6,41.6l-2-1.1l1.6-1l1.2,0.7l1.2-1.5l0.7,1.6L357.6,41.6z
		 M388.8,58.4l1.5,2l-1.5,1.7l-3.6,1.8l-1.7,2.2l0.6,2.3l2.6,0.9l-0.6,1.3l-2.5,1.4l-3,0.3l-0.6,1.3l0.6,2.6l-1.9,2l4.7,5.2l0.9,2.2
		l-2.9,2.8l-2-0.1l-2,2l-4.5,1.2l-1.4-0.6l-2.7,1.2l0.2,2.6l-1.3,0.7l-3.6-2.8l-4.6,0.5l-0.5-1.3l-3.3-0.1l-1.7-0.9l2.1,2.8l2.4,1.8
		v3.4l1.7,3l-0.3,1.7l4.7,0.2l-0.2,2l-4.1,1.4l-0.6,2.3l-4.5,3l-2.8,1l-2.9,3.5l-0.3-2.3l-4,1.9l-1.8-0.4l-3.4-2.8l-2.7-8.2
		l-3.2-2.8l-1.5-0.4l3.6-4.1l-2.5-2.3l-2-5.3l0.3-4l-0.5-1.6l1.4-1.5l0.2-2.5l1.2-1.6l-1.2-1.6l-7.7,1.4l-3.2-0.4l-2.7,0.9l-5.2-5.7
		l-3.6-0.8l-4.4,1.3l-6.6-0.2l-1.1-2.3l-1.9-0.3l-0.6-3.8l1-1.3l-0.5-1.7l-2.3-2.2l-1.5-3.6l-1.5-1l-2.6,1.3l2.5-5.4l0.1-4.8
		l2.6-5.5l1.8-0.5l1.8-4l4.7-1.8l-0.3,0.7l-4.3,1.6l0.3,1.6l3.2,4.9l-0.3,2.1l-2.3,2.9l-1,2.2l3.2,3.7l-0.1,1.5l1.9,0.4l1.7-0.9
		l1.5-1.9l-0.1-3l-2.7-3.3l-2-4.4l5.2-3.4l2.6-0.6l4.1-2.4l1.5,0.2l-0.6-1.6l-2.8,0.9l-1-1.9l0.6-2l1.4-0.8l1.5,1.4l1.9,4.2l2.6-0.7
		l3.1,0.4l3.8,2.3l1.1,1.7l0.3,2.5l2.3,0.7l6.9-1.5l5.7-0.6l3.3,3.1l5.7,1.1l2.5-0.5l4.5-3l3.1-0.2l-3.1-0.9l10.6-1.4l5.7,0.7
		l-2.8,1l-3.3,0.3l1.2,2.7l2.9,2.2l-0.3-1.4l3.4,1.7l1.5-0.8l3.8,2.4l1.2,0.2l1.7,2.4l-2.5,2.5l-0.8,2.3l6.2-0.3L388.8,58.4z"/>
	<path class="st10" d="M356,499l1-0.2l0.9,2.2l-1.7-0.1L356,499z M358,494.5l-0.8,2.3l-1.1-1l-0.6,0.7l-1.9-0.1l-1.3-2.3l4.6-0.2
		L358,494.5z M340.8,494.9l2.9,0.9l-0.8,1.1l-0.2-1.1l-1.6,0.2L340.8,494.9z M347.3,494.3l1.5,0.2l-3.2,0.9l0.6-1.4L347.3,494.3z
		 M337.9,487.8h1l0.4,1.3l1-0.6l-0.5,2.2l-1.7-1.8L337.9,487.8z M336.3,487.3l1,0.2l-0.6,3.2l-1.6-1.7L336.3,487.3z M343.2,488
		l-1.5-0.6l2,2.2l-1.9-0.5l-1-1.1l-0.1-1.4l1.1,0.1l-0.5-1.3l1-1.1L343.2,488z M327,476.8l-0.1,2.2l-0.8-0.5l-1-0.1L327,476.8z
		 M323.4,476.4l1,2.3l-1.3-1.5l-1.5-1.1L323.4,476.4z M323.9,474.7l2.6,1.8l-1.3,0.5l-0.2-1.3L323.9,474.7z M320.7,473.4l-0.3-1
		l2.7,1.7l-0.6,1.4l-1.9-1.1L320.7,473.4z M320.3,470.1l-1.1,1.7l0.2-2.4l1,0.2l1.7-1.2l-0.7,1.7H320.3L320.3,470.1z M320.1,465.5
		l1-0.7l0.4,1.1l1.3-0.1l0.1,2.4l-2-1.5L320.1,465.5z M321.3,462.9l1.2-0.1l1.2,2.3l-0.6,0.5L321.3,462.9z M319.3,463.4l-0.6,2.2
		h-0.8l-0.3-2L319.3,463.4z M318.1,460.1l1.1,1l1.2-0.6l-1.7,2.6l-1.2-0.5l0.2-1.3l1.2,0.4L318.1,460.1z M316.8,456.8l0.6,0.2l1,1.9
		l-2.2-1.6L316.8,456.8z M317,452.6l0.4,0.7l-1.8-0.6l0.4-1L317,452.6z M316.7,450l-1.6-0.2l0.2-1.1l1.2-0.2L316.7,450z M317.9,450
		l0.3,2.3l-0.6,0.2l-1.1-4.6l-0.6,0.6l-0.9-2.3l1-0.7l1.5,3.2L317.9,450z M317.3,444.2l-1.3-0.6l1.6-0.7v1.5l1.2-0.5l0.5,2l-2.5-0.2
		L317.3,444.2z M322.6,443.9l-1.5,1l-0.9-0.4l1.1-0.9L322.6,443.9z M320.9,426.6l0.8,0.2l-0.4,2.8l-1.1-1.9L320.9,426.6z M319,426.7
		l1,1.5l-0.9,1.1l-1.5-0.3L319,426.7z M320.2,423.7l-1.4,0.2l0.7-1.1l1.1,0.1l1.4,1.4l-0.4,1.7h-1.5l-0.8-1.4L320.2,423.7z
		 M318.3,417.1l0.7,3.7l3.3,0.6l-1,1.9l-0.7-1l-1.8,0.2L318.3,417.1z M324.1,418.9l2,0.5l-0.2,1.8l-2.1,1.7l-1.1-1.9L324.1,418.9z
		 M321.5,417.4l-0.6-1.5l-2-0.1l1.4-0.6l1.2,1.3l0.1,1.9l-2,1l-0.3-1.3l0.9-0.8l0.3,1.4L321.5,417.4z M325.3,246.3l2.6-0.7l1-1.9
		l-0.6-1.5l2-1.6l2.4,4l1.5,4.6l-0.2,0.6l3.2,3.1l-1.1,1.9l0.8,1.9l-1.1,0.3l0.7,2.7l1.2,0.7l-0.4,1.6l2.3,2.5l0.9,4.3l0.7,0.6
		l0.9,3.3v1.8l2,0.2l2.1-0.6l1.1,1.1l-1.7,6.8l-5,2.6l-1.8,2.6l1.3,2l-1.2,2.3l1.4,4.7l-0.9,0.9l0.1,1.6l1.5,2v1.1l-1.4,0.9
		l-1.2-0.3l-1.1,2.3l-0.7,3.1l-2.5,3.2l-0.6,4.6l-1.2,1.8l0.8,2.3l-0.1,2.4l0.5,1.4L332,324l-0.6,3.8l-0.7,1.1l-0.4,3l1.8,4.7
		l0.9,1.2l0.6,3.7l0.7,1.7l1.2,0.4l-0.5,1.9l0.6,3.8l-1.1,0.3l-0.9,2l-0.6,4l-0.8,0.3l0.9,1.9l0.4,3.5l-1.6,1.6v1l-1.7,0.6l-0.6,2.4
		l0.7,1.7L330,370l0.3,2.7l1.1,2.3l1,4.2l-2.7,1.9l0.2,2l-0.4,2.6l-0.9-0.2l0.5,2.2l-0.9,2.2l0.8,0.8l-1.2,2.7l0.6,1.5v4.7l1.2,3.1
		l-1.5,0.6l0.2,2.3l-0.5,0.8l0.2,2.7l2.1,1.1l-0.8,1.9l1.2,0.9l0.5,2.3l-0.9,1.3l0.3,2l3-0.1l0.5,0.7l-0.9,2l-3.5-0.1v1l2.4,0.3
		l1.5,2.2l-0.9,1.6l-1.2,0.5v1.2l1,1.5l-1.4,1.4l0.8,0.6l0.6,3.1l-1.1,0.9l-0.2,1.7l0.7,0.8l-1.3,1.9l-1.5,3.8l1.1,1l0.4,1.9l-1.3,1
		l0.2,2.4l-1.8,1.6l-0.6,1.9L326,454l-0.5,1.6l0.7,1.6v2.8l1.1,0.9l1,3.4l1.7-1.1l2.2,0.1l0.6,4.2l-0.7,2.5l2.5,2.2l0.3,0.9l8.9-0.6
		l6.8,1.7l0,0l0,0l0,0l0.1,0.1v0.3l-3.2-0.9l-1.4,0.5l-0.9,2.1l-0.8-0.3l-3.8,2.2l-0.8,3.8l0.3,2.7l-0.3,1.7l-1.3,0.6l-1.4-0.3
		l-3-1.6l-0.9-1.3l0.6-1.3l2.4-0.4l1.5-0.9l0.8-2.4l-0.8,0.1l-2.3,1.8l-1.2,1.5h-1.1l-0.2,1.3l0.8,1.3l-3.9-1.9l1.1-1.1l-0.4-2
		l1.1-1.1l0.1,1.3l2.3-1.9l3.1-0.3l-0.5-0.6h-3.5l-0.3,1l-2-0.9l0.9,1.1l-1.4,1.5l0.4,1.4l-1.6,0.5l-1.3-2l1.2-0.2l0-1.6l-1.3,1.4
		v-3.2l-1.6-1.5l-2.7-1.6l0.5-0.6l2.8,2.1l-1.2-2l-1.2-0.5l1.4-0.9l-0.1-2.8l-1.8-1.1l0.9,2.6l-0.7-0.5l-0.5-3.1l2.3-1l-0.1-1
		l1.3-0.3l-1.3-0.9l-0.1,1.7l-1.5,0.3l-0.8-2.3l-2.1-1.5l1.5-1l-0.2-2.2l1-2.2l-0.4-2l-0.2,2.2l-0.9,0.8l-0.1-3.2l-0.6-1.2v-3
		l-1.5-4.2l2.6-0.3l3.5,1.2l-1.7-2l0.5-0.8l-4.7,0.2l-1-0.4l0.5-1l1.3,0.3l-1.1-1.4l0.9-1.6l1.5-0.5l-1.6-2.6l-1.7,0.2l-0.2,0.7
		l-2.1-1.5l-1.1,0.4l-0.9,2l-1-2.1l2.6-3.3l0.6,0.3l0.6-1.9l-0.5,0.7l-0.8-1.6l1.5-0.6v1l0.2-0.7l2.6-0.6l1,1.5l1-1.8l0.5,1.9
		l-0.3,3.6l0.5-1.9l-0.1-2.4l1.4-2.7L323,429l-1.2-0.9l0.3-1.3l2.4-1.4l-1.2-0.1l0.3-2.2l1.1-0.2l1.8-1.5v-1.8l-3.2-2l1.5-4.2
		l-1-0.8l1.5-3.3l-0.7-1.7l0.8-1.9l-0.8-1.6l1.2-0.3l0.6,1.6v-2l-2.5-1.4l1.3-1.5l-1.9-1.3l-0.5,1.8l-2,0.6l-1.4-0.3l-1.5-5.2l0.8-3
		l-0.3-3.8l1.2-1.1l0.9-2.4L320,383l-1.8-4.2l0.2-2.3l-1.3-2.4l0.1-3.8l2-0.2l0.1-2.2l0.7-0.9l0.6-2.8l0.1-2.4l0.9-1l-0.4-1.6l2-3.1
		l0.7-3.1l-0.1-3.3l1.8-4.3l-1-2.8l1-0.7l0.5-4.2l-0.8-1.1l0.1-2l-1.3-4.7l-0.6-3.5l0.3-2.5l1.4-0.7l0.4-1.6l-0.8-4l-1-2.2l1.7-3.9
		v-2.7l1.2-2.2l-0.5-3l0.9-1.1l0.4-6.4l-0.7-1.1l0.4-1.9l1.1-1.4l-1.1-3.9v-6.1l0.4-1.8l-1.3,0.1l0.1-2.7l1.6-1.4l0.3-8.1l0.5-1.6
		l-1.1-3.9l0.1-4.8l-0.3-2.2l-1-2.7l-0.7-3.4l0.2-2.2L325.3,246.3z M351,493.2v0.5v0.2l-1.8,0.6l-2.6-0.8l-1.9,0.3l-2.4-0.3
		l-0.6,0.5l-1.5-1.8l-0.4,0.9l-0.9-1.4l-0.2,1.1l-2.3,0.2l-0.4-1.5l1.5,0.7l-0.3-1.3l1.6-0.4l1.8,0.6v-1l1.5-0.2l-1.5-1.6l3.2,1.6
		l0.7-0.9l4.9,1.1l-4.9-2.3l-0.7-2l1.1-1.3l2.4-1.2v-1.3l-4,1.1l-1.1-1.1l0.1-2.3l1.4-0.9l-1.5-1.1l1.9,0.5l1.2-0.6l0.6-2l0.7-0.5
		l1.4,1.6l1.5-1.1l0.7,0.6l0,0l0.1,1.3l0.4,6.8l0.4,6.9l0.1,1.3h-0.3L351,493.2z M318.7,447.9l-0.7,0.6l-1.3-2.6l0.7,0.2l1.4,0.2
		l0.1,1.3l0.5-0.9l1.2,3.2l-2-0.2l-0.5-0.8L318.7,447.9z M328.1,482.6l-2-0.8v1.3l-2.6-2l-0.5-1.5l2,1.6l3.7,1l1.9,1.5l-2.3-0.2
		L328.1,482.6z M351.3,497l2.1,0.7l0.8,1.4l-0.3,1l-0.9-1.5l-3.2-0.5l0.6-1.9l-1,0.7l-2-0.1l0.5,1.3l-2.5-0.7l0.1-1.8l6.3-1.4
		l0.5,0.9l-1.2,0.8l1.7,1L351.3,497z M333.5,488.2l-1.1,0.5l-0.4-1.5l-1.9,1.8l-0.2-2.5l-1-0.9l-0.9-0.3l3.3-1l3.6,2.4l-1.1,1.4
		l1,1.3l-0.8,1.5l-0.5-1l0.9-0.8L333.5,488.2z M318.7,458.8l-1.1-2.1l-1.2-0.6l0.6-1.3l1.6-0.3l-1-0.7l0.6-0.9l1.2,0.5l-1.2-1.9
		l0.3-0.7l-0.2-0.7l2.3,0.4l0.8,4.3l-0.3,1.4l0.7,1.6l-0.3,1.9L320,460l-0.1-2.4l-0.9-1.1L318.7,458.8z M317.8,406.1l0.5-2.2
		l-0.3-2.2l1.1,0.5l1.4-0.8l1.2,3.4l-1.2,0.6l-0.6,1l1.7,2.3l-0.8,0.3l0.9,1.3l-1.3,0.4l0.3,1.8l-1.7,0.2l-1.7-0.9l0.7-1.6l0.3-2.7
		L317.8,406.1z"/>
	<path class="st10" d="M369.9,491.6h2.3l-3.8,1.5l-0.4-0.5L369.9,491.6z M351,493.2l0.3,0.5l-0.3,0.2v-0.2V493.2z M398.6,339.7
		l-0.8,0.1l-0.9,4l0.9,3.4l-1.1,0.6l0.5,1.6l1.7,1.5l3.4,1.8l1.5,1.6l0.5,1.6l-1.1,1.6l0.5,2.9l2.9,1.6l0.1,3l-2.2,3.7l-2.4,3.1
		l-0.5,1.8l-2.9,1.8l-4.8,1.8l-9.3,1.9l-3.4,0.3l-4.6-1.3l0.7,3l1.2,0.7l-0.4,3.1l-1-0.1l-0.3,2.7l-0.6,0.7l1.1,1.8l1.2-1.7
		l-1.5,3.8l-3.8,2l-3.5,0.1l-4.9-2l-0.8-0.8l-1.4,2.1l1,3.6l-0.3,3l1.1,1.4l1.9,0.3l-0.6,1.3h2.4l-0.9-1.2l2.4-1.4l1.2,1.8l-0.1,2.8
		l-2.4,1l-0.5-1.6l-1.2-0.9l-2.5,1.1l-0.2,0.9l2.9,1.2l-1.6,1.3l-2.7,3.7l0.7,4.8l-0.8,1.6l-1.4,0.9l0.5,2.2l-2.9-0.1l-3.2,1.9
		l-2.1,2.8l-1.2,3.9l1.1,2.8l1.5,0.9l1.7,2l3.9,0.2l1.2,0.9l0.1,2.2l-0.9,3.9L359,445l-3.5,2.5l-2,2.6l-0.5,5.6l-0.4,1.3l-2.3,1.4
		l-1.7-2.6l0.3,1.6l1.2,1.2l-2.3,1.5l-0.8,1.7l-0.2,3.1l1.4,4.9l2.3,4.7l0,0l0,0l-6.8-1.7l-8.9,0.6l-0.3-0.9l-2.5-2.2l0.7-2.5
		l-0.6-4.2l-2.2-0.1l-1.7,1.1l-1-3.4l-1.1-0.9v-2.8l-0.7-1.6l0.5-1.6l1.2-0.6l0.6-1.9l1.8-1.6l-0.2-2.4l1.3-1l-0.4-1.9l-1.1-1
		l1.5-3.8l1.3-1.9l-0.7-0.8l0.2-1.7l1.1-0.9l-0.6-3.1l-0.8-0.6l1.4-1.4l-1-1.5V427l1.2-0.5l0.9-1.6l-1.5-2.2l-2.4-0.3v-1l3.5,0.1
		l0.9-2l-0.5-0.7l-3,0.1l-0.3-2l0.9-1.3l-0.5-2.3l-1.2-0.9l0.8-1.9l-2.1-1.1l-0.2-2.7l0.5-0.8l-0.2-2.3l1.5-0.6l-1.2-3.1v-4.7
		l-0.6-1.5l1.2-2.7l-0.8-0.8l0.9-2.2l-0.5-2.2l0.9,0.2l0.4-2.6l-0.2-2l2.7-1.9l-1-4.2l-1.1-2.3l-0.5-3l0.5-1.3l-0.7-1.7l0.6-2.4
		l1.7-0.6v-1l1.6-1.6l-0.4-3.5l-0.9-1.9l0.8-0.3l0.6-4l0.9-2l1.1-0.3l-0.6-3.8l0.5-1.9l-1.2-0.4l-0.7-1.7l-0.6-3.7l-0.9-1.2
		l-1.8-4.7l0.4-3l0.7-1.1l0.6-3.8l1.5-0.5l-0.5-1.4l0.1-2.4l-0.8-2.3l1.2-1.8l0.6-4.6l2.5-3.2l0.7-3.1l1.1-2.3l1.2,0.3l1.4-0.9v-1.1
		l-1.5-2l-0.1-1.6l0.9-0.9l-1.4-4.7l1.2-2.3l-1.3-2l1.8-2.6l5-2.6l1.7-6.8l-1.1-1.1l0.9-2l1.5-0.7l0.2-1.3l2.1-0.7l0.7-2.2l3.1,2
		l4.3-0.3l2.6,0.6l1.6,4.2l0.5-2.2l1.7-3.5l6.8-0.2l0.9,1.5l2.2,1.5l2,3.5l2.8,2.4l2.3,1.3l0.6,1.3l4,1.4l1.7-0.1l4.1,3.1l3.1,1.9
		l3.4,1.1l2.7,1.6l1.1,1.8l-1.2,1.3l-0.7,2.2l-1.7,1.6l-0.5,3.1l-2.3,2.6l0.3,1.1l3.3-0.3l4.8,1.6l3.6-0.2l1,0.9l1.4-1.8l2.1,1
		l2-2.8l1.7-0.3l2.1-1.9l1-2.9l0.4-4l2.9-0.3l1.1,0.9l1.2,3.9l-0.4,4.2l-0.9,1.9l-6.1,2.7l-0.8,1.4l-1.7,0.4l-2.7,2l-3.8,5.2l-5.2,6
		l-1.7,1.3l-1.3,2l0.2,2.7l-1.5,3.7l0.5,0.5l-1,1.9l-0.2,3.9l0.2,3.6v0.3L398.6,339.7z M350.9,491.7l-0.6-11l-0.2-2.8l-0.1-1.3
		l1.7,2.2l-0.9,1.4l0.4,1.4l1.5,0.2l0.7,1.9l3.2,3.3l2.4,1.4l1.4,1.6l2.9,1.3l3-0.2l-0.7,2.1l-5.2,1.3l-2.2-1l-7.1-0.5L350.9,491.7z
		 M350.7,474.5l-0.2-0.4l0,0l0,0l0.1,0.1L350.7,474.5z"/>
	<path class="st10" d="M330.4,227.4l-2.3-1.3l-1.4,0.9l-0.2,2.9l1.2-0.5l0.9,1.1l1.6,0.2l-0.4,1.2l2.5,0.1l0.3-0.1h0.6l-0.7,1.8
		l0.4,0.3l-2.2,3.6l-1.4,1.4l1.1,1.4l-2,1.6l0.6,1.5l-1,1.9l-2.6,0.7l-3.4-2.3l-3-1.5l-1-2.6l-3.8-1.4l-1.7-1.6l-2.1-0.5l-6.5-2.3
		l-2.3-1.5l-2.6-0.8l-4.9-2.4l-2.6-2.8l-2.6-1.3l-0.5-1.2l-2-1.4l0.1-4.4l-0.4-1.1l-4.4-5.3l-0.4-1.1l-2-1.3l-0.5-2.2l-1.2-1.5
		l-2.3-1.1l-0.4-2.3L272,199l-2.7-4.6l-0.5-1.6l-1.5-1.1l-1.5-3.6l-1.8-2.4l-3.6-2.9l-2.2-3.9l-3.1-2.7l-4.8-1.6l-2.3-1.3l-0.5-1.2
		l1.4-0.4l0.3-1.5l-2.7-2.6l0.7-1.4l-2.2-2l0.1-3.1l2.7-4.1l2.6-2.6l1.7,3.1l-2,1.1l0.9,3.1l1.6-1.5l2.3,1l2.2,0.1l0.6,1.8l2.8,1
		l0.7-1.9l1.5-1.6l-0.3-1.5l1.3-4v-2.5l1.1-0.5l2-3l7.6-3.8l3.7-3.6l3.2-4.7l0.6-4.1l1.3,0.2l-0.6-3.1l-2.8-2.6l2.4-0.3l0.4-0.6
		l2.9,0.6l3.2,2.5l0.7,2l3.4,2l1.7,0.2l1,2.8l2.5,0.7l0.2,2.8l1.9,1.3l2-0.8l1.7,0.7l2.9-1.1l1.5-1.5l2.3,1.5l2.8-1.5l4.5,1.6
		l2.2,1.4l-4.1,7.7l2.9,0.1l2.6,2.6l-1.6,0.9l-0.8-1.1l-3.5,0.3l-0.8,1.4l-5.4,1.1l-1.9,1l-3.5,3.2l-1.9,0.9l-0.2,4l-1.4,2.6
		l0.9,2.3l-3.9,3.6l0.6,2.7l-1.8,1.8l2.2,1.4l1.6,3.8l2.5,2l1.6,2.3l-1.5,2.3l2.6-0.2l3.4,0.5l1,3.1l5.2-0.5l4.8-3.2l0.6,9.6
		l2.3,0.2l2.1-1.1h2.4l6.4,9.9l-1.7,2.5l0.2,5.8l1,3l-2.1,2.6l-0.8,2.5l1.7,1.6L330.4,227.4z"/>
	<path class="st10" d="M426.4,337.9l-1,0.6v1.3l-1.7,1l0.4,3v0.6l0.9,0.7l-2.3,4.2l-2.8,1.8l-3.7,1.8l-2.3-1.3l-2.2-0.2l-2.8,0.8
		l-0.3-0.8l-2.3-0.6l-1.7-1.6l-4-0.1l-2.9-3.5l-0.3-1l0.4-4.2l0.7-0.6l0.5-0.5l0.6-0.6l-0.8-3.1l0.2-3.9l1-1.9l-0.5-0.5l1.5-3.7
		l-0.2-2.7l1.3-2l2.2,0.7l2.2-1.1l4.5,4.7l-0.1,1.8l2.4-1.4l1.7,2.5l3.7,1.7l2.4,3l2,1l0.6,1.9L426.4,337.9z"/>
	<path class="st10" d="M422.6,281.7l-0.7,1l-0.9,5.4l-0.7,2.3l0.1,0.6v0.3l-0.4,4l-1,2.9l-2.1,1.9l-1.7,0.3l-2,2.8l-2.1-1l-1.4,1.8
		l-1-0.9l-3.6,0.2l-4.8-1.6L397,302l-0.3-1.1l2.3-2.6l0.5-3.1l1.7-1.6l0.7-2.2l1.2-1.3l-1.1-1.8l-2.7-1.6l-3.4-1.1l-3.1-1.9
		l-4.1-3.1l-1.7,0.1l-4-1.4l-0.6-1.3l-2.3-1.3l-2.8-2.4l-2-3.5l-2.2-1.5l2.1-7.6l-0.1-3.2l2-3.1l1.1-2.9l10.6-2.4h5.6l5.5,3.5v2.2
		l2,5.2l-1.1,6.9l0.8,0.7l3.8,0.3l2.2,0.7l2.5-1.3l1.3,1.3l1.9,0.3l1.4,2l-0.1,2.4l1.2,6.3l2.7,0.1l1.8-1L422.6,281.7z"/>
	<path class="st10" d="M332.3,232l0.5-0.8l0.4,0.7h-0.6L332.3,232z M330.4,240.4l-1.1-1.4l1.4-1.4l2.2-3.6l2.5-2.3l-1.4,0.1l0.1-1.8
		l-3.8-2.6l1.3-1.9l-1.7-1.6l0.8-2.5l2.1-2.6l-1-3l-0.2-5.8l1.7-2.5l-6.4-9.9l5.3,0.1l-0.1,0.8l3.1-1.2l1.2-1.9l2.4-0.1l2.3-2.6
		l1.8-0.6l2.7-2.5l7.6-1.8l1,1l0.2,2.6l-0.7,1.5l0.3,4.7l1.5,3.9l1.3,1.6l3.5,1.6l0.5,1.3l3,0.6l0.8-0.7l2.6,1.4l2-0.2l1.8,2.2
		l4.1,0.8l2.1,2.7l5.1-0.5l3.7,2.2v3.1l1.1,2.3l0.1,3.1h-1.9l2.1,2.7l0.7,5.1l10.4,0.4l0.5,6.1l3.6,2l1.4,4.1l-1.6,5.6l-2.1,4.3
		l1.6,1.6l-1.8,1.2v-2.2l-5.5-3.5H389l-10.6,2.4l-1.1,2.9l-2,3.1l0.1,3.2l-2.1,7.6l-0.9-1.5l-6.8,0.2l-1.7,3.5l-0.5,2.2l-1.6-4.2
		l-2.6-0.6l-4.3,0.3l-3.1-2l-0.7,2.2l-2.1,0.7l-0.2,1.3l-1.5,0.7l-0.9,2l-2.1,0.6l-2-0.2V273l-0.9-3.3l-0.7-0.6l-0.9-4.3l-2.3-2.5
		l0.4-1.6l-1.2-0.7l-0.7-2.7l1.1-0.3l-0.8-1.9l1.1-1.9l-3.2-3.1l0.2-0.6l-1.5-4.6L330.4,240.4z"/>
	<path class="st10" d="M409.7,79.9l0.7-1.8l0.8-0.5l7.4,1.7l0.7-1.3l7.8,0.2l5.3,1.3l-0.4,2.6l-2.7,3.1l-0.3,4.2l0.6,3.4l2,2.9
		l0.3,1.3l-1.6,2.3l0.3,1.1l-1.5,3.2l-1.9,1.3l-2.5-1.6l-5.3,0.9l-1.8-0.9l-1,1.3l1.4,2.2l-0.8,1.4l-3.2-0.9l-1.6-0.7l-3.2-5.7
		l-0.9-4.2l-1.8,0.3l-1.9-2.3l-1.7-3.6l1.7-3.6l-0.6-1.4l1.5-1.1l3.2-0.2l0.3-3.4L409.7,79.9z"/>
	<path class="st10" d="M409.7,79.9v0.5l-0.6,1.1l-0.3,3.4l-3.2,0.2l-1.5,1.1l0.6,1.4l-1.7,3.6l1.7,3.6l1.9,2.3l1.8-0.3l0.9,4.2
		l3.2,5.7l1.6,0.7l-2.3,0.5l-2.1-1.1l-1.7,0.3l-1.6,1.8l-5.5,0.7l-1.4,2.3l-2.7,0.3l-2.4-1.1l-3.6-3.5v-2.9l-1.8-3.1l1.2-6.6
		l2.2-2.3l-1.5-1.8l0.3-1.5l-3.3-1l1.2-4.2l-1.7-1.3l-3.8,0.5l-4.7-5.2l1.9-2l-0.6-2.6l0.6-1.3l3-0.3l2.5-1.4l0.6-1.3l-2.6-0.9
		l-0.6-2.3l1.7-2.2l3.6-1.8l1.5-1.7l-1.5-2l6.3,3.8l3.7,3.6l1.5,2l-1.1,6l1.3-2.6l2.7,0.3l6.5,5.6v2.8H409.7z"/>
	<path class="st10" d="M386.6,470.8l0.2-2.2l1.4-0.3l-1.4-1l-0.4-1.3l5.4,0.6l-0.3-0.8l1,0.5l-2.8,4.2l-1.9,0.5l-1.4,1.6l-2-1.4
		l-0.5-1.6l1.1-0.1l0.2,1L386.6,470.8z M397.7,467.7l1.7,0.8l-3.2,1.5l-1.5-0.1l0.7,0.8l-1.5,0.7l-1.3-0.7l0.7,1.5l-1.5-0.7
		l-0.4,1.4l-1-2.3l3.2-2.5l-0.8-0.6l1.1-2.2l2.1,0.2l0.6,1.5l0.6-0.9l1.5-0.1l0.5,1.3L397.7,467.7z"/>
	<path class="st10" d="M340.5,113.3l-1.3,0.5l-0.6-3.8l-1.7-2.6l-1.7,0.3l-2.8,2.3l-1.5-1.8l0.4,2l-11.9,0.9l0.3,4.6l3.4-0.3
		l1.8,2.8l-2.6-0.3l-3.8,1.3l0.2,5.1l3.3,2.4l0.1,1.5l1.8,3l-2.4,21.4l-2.6-2.6l-2.9-0.1l4.1-7.7l-2.2-1.4l-4.5-1.6l-2.8,1.5
		l-2.3-1.5l-1.5,1.5l-2.9,1.1l-1.7-0.7l-2,0.8l-1.9-1.3l-0.2-2.8l-2.5-0.7l-1-2.8l-1.7-0.2l-3.4-2l-0.7-2l-3.2-2.5l-2.9-0.6
		l-0.4,0.6l-3.7-1l-2-1.8l-1.9-0.5l-0.5,1.5l-3.4,0.5l-3.8-0.7l-0.5-1.7l-1.6-1l-3.2-0.3l-3.4-1.5l-2-1.4l-1.5-1.3l1.1-1.5h2
		l-1.3-2.8l2.2-3.6l1.6-0.2l3.1-2.2l-0.6-0.5l2.1-3.4l0.9-2.7l-2.9-3.1l1.3-2.5l-1.5-6.5l0.9-2.5l-2.1-2.7l0.7-2.8l-2.8-2.1
		l-1.9-2.4l0.7-3.8l1.1,1.3l2.9-3.4l-2.3-3.6l1-0.5l3.6,2.3l0.2-2l-1.4-0.9l4.7-4.2l1-2.7l3.3-1.2l-0.9-1.8l0.6-2.1l-0.4-2.1
		l0.5-2.7l4.6-4.6l2.5,0.6l1.4,1.5l0.9-4.3l6.8-0.5l3.7-3.5l3.7-1.8l0.5-2.8l2.7-0.9l0.7-1.2l3.6,0.8l1.1,1.8l-1.5,2l-4.7,1.8
		l-1.8,4l-1.8,0.5l-2.6,5.5l-0.1,4.8l-2.5,5.4l2.6-1.3l1.5,1l1.5,3.6l2.3,2.2l0.5,1.7l-1,1.3l0.6,3.8l1.9,0.3l1.1,2.3l6.6,0.2
		l4.4-1.3l3.6,0.8l5.2,5.7l2.7-0.9l3.2,0.4l7.7-1.4l1.2,1.6l-1.2,1.6l-0.2,2.5l-1.4,1.5l0.5,1.6l-0.3,4l2,5.3l2.5,2.3l-3.6,4.1
		l1.5,0.4l3.2,2.8L340.5,113.3z"/>
	<path class="st10" d="M442.8,103l-2.6,2.6l-3.3,0.5l-0.9-1.9l-1.5-0.3l-2.1,1.9l-3-1.4l1.7-2.9l0.6-3.1l1.2-3l-2.6-4.1l-0.5-4.7
		l3.5-6l2.3,0.8l5,1.6l7.2,5.8l1.1,2.8l-4,6.3L442.8,103z"/>
</g>
<text transform="matrix(0.6967 -0.7173 0.7173 0.6967 449.6865 86.205)" class="st5 st11">Fr.Guiana</text>
</svg>
